<svg width="28" height="28" viewBox="0 0 28 28" fill="none" xmlns="http://www.w3.org/2000/svg">
<rect width="28" height="28" fill="#FF0000" fill-opacity="0.01"/>
<path fill-rule="evenodd" clip-rule="evenodd" d="M18.3777 23.5577C17.037 24.1069 15.5562 24.4138 14 24.4138C7.81313 24.4138 2.80005 19.5785 2.80005 13.6069C2.80005 7.64076 7.81313 2.79999 14 2.79999C20.187 2.79999 25.2001 7.64076 25.1893 13.6177C25.1893 15.7661 24.5377 17.7692 23.4124 19.4546C23.3639 19.5138 23.3208 19.5838 23.2777 19.6538C23.1485 19.8854 23.0677 20.1546 23.0677 20.44L24.2577 25.2L19.7347 23.5361C19.5354 23.45 19.3147 23.4069 19.0831 23.4069C18.8731 23.4069 18.6685 23.4446 18.48 23.5146C18.48 23.52 18.4747 23.52 18.4693 23.52C18.437 23.5308 18.41 23.5415 18.3777 23.5577ZM20.8924 14C20.8924 13.0469 20.1224 12.2769 19.1693 12.2769C18.2162 12.2769 17.4462 13.0469 17.4462 14C17.4462 14.9531 18.2162 15.7231 19.1693 15.7231C20.1224 15.7231 20.8924 14.9531 20.8924 14ZM14 12.2769C14.9531 12.2769 15.7231 13.0469 15.7231 14C15.7231 14.9531 14.9531 15.7231 14 15.7231C13.047 15.7231 12.277 14.9531 12.277 14C12.277 13.0469 13.047 12.2769 14 12.2769ZM10.5539 14C10.5539 13.0469 9.7839 12.2769 8.83082 12.2769C7.87774 12.2769 7.10774 13.0469 7.10774 14C7.10774 14.9531 7.87774 15.7231 8.83082 15.7231C9.7839 15.7231 10.5539 14.9531 10.5539 14Z" fill="black"/>
<mask id="mask0_7_1361" style="mask-type:luminance" maskUnits="userSpaceOnUse" x="2" y="2" width="24" height="24">
<path fill-rule="evenodd" clip-rule="evenodd" d="M18.3777 23.5577C17.037 24.1069 15.5562 24.4138 14 24.4138C7.81313 24.4138 2.80005 19.5785 2.80005 13.6069C2.80005 7.64076 7.81313 2.79999 14 2.79999C20.187 2.79999 25.2001 7.64076 25.1893 13.6177C25.1893 15.7661 24.5377 17.7692 23.4124 19.4546C23.3639 19.5138 23.3208 19.5838 23.2777 19.6538C23.1485 19.8854 23.0677 20.1546 23.0677 20.44L24.2577 25.2L19.7347 23.5361C19.5354 23.45 19.3147 23.4069 19.0831 23.4069C18.8731 23.4069 18.6685 23.4446 18.48 23.5146C18.48 23.52 18.4747 23.52 18.4693 23.52C18.437 23.5308 18.41 23.5415 18.3777 23.5577ZM20.8924 14C20.8924 13.0469 20.1224 12.2769 19.1693 12.2769C18.2162 12.2769 17.4462 13.0469 17.4462 14C17.4462 14.9531 18.2162 15.7231 19.1693 15.7231C20.1224 15.7231 20.8924 14.9531 20.8924 14ZM14 12.2769C14.9531 12.2769 15.7231 13.0469 15.7231 14C15.7231 14.9531 14.9531 15.7231 14 15.7231C13.047 15.7231 12.277 14.9531 12.277 14C12.277 13.0469 13.047 12.2769 14 12.2769ZM10.5539 14C10.5539 13.0469 9.7839 12.2769 8.83082 12.2769C7.87774 12.2769 7.10774 13.0469 7.10774 14C7.10774 14.9531 7.87774 15.7231 8.83082 15.7231C9.7839 15.7231 10.5539 14.9531 10.5539 14Z" fill="white"/>
</mask>
<g mask="url(#mask0_7_1361)">
<rect width="28" height="28" fill="white"/>
</g>
</svg>
