<svg width="323" height="161" viewBox="0 0 323 161" fill="none" xmlns="http://www.w3.org/2000/svg">
<path fill-rule="evenodd" clip-rule="evenodd" d="M158.229 0V12.6451H152.557V61.8526H145.107V46.6987H141.184V43.0384L132.601 46.6987H130.498V37.5954L120.229 24.4011L109.96 37.5954V68.5529H105.14V74.5689H98.0269V50.0161H92.132L92.3775 39.8288H85.5558V36.9111H78.644L77.5804 19.267L76.5173 36.9111H75.1878V39.8288H73.394L74.0513 67.1116H72.7781V55.075L58.487 46.6987V61.8526H44.1953V50.0161H35.3734V43.0384L20.2615 53.628V43.0384L0 57.2367V161H15.1113H20.2615H34.7296H35.3734H44.1953H58.487H72.7781H75.74H88.5606H90.0311H97.2002H98.0269H109.96H117.738H130.498H145.107H152.557H165.185H170.582H183.244H186.677H198.304H204.634H214.861H218.566H223.84H232.818H235.123H244.102H248.947H253.081H269.208H275.89H284.581H293.272H299.963H301.963H311.67H314.254H323V59.8745H316.118L316.6 39.8288H301.963V10.8118H293.272V16.9799H284.581V22.6272H275.89V51.7421H269.208V38.2054H266.829V36.7125H251.327V38.2054H248.947V66.4319H244.102V30.1551H241.722V28.6622H226.22V30.1551H223.84V51.0449H218.566V38.2054H216.186V36.7125H200.684V38.2054H198.304V43.0384L193.329 48.3556V57.2703H186.677V51.7421H183.244V38.2054H170.582V30.1912L165.185 25.6202V12.6451H159.512V0H158.229Z" fill="#FDDA38" fill-opacity="0.1"/>
</svg>
