<svg width="75" height="76" viewBox="0 0 75 76" fill="none" xmlns="http://www.w3.org/2000/svg">
<path d="M61.299 61.7749L58.8525 59.272L58.8461 59.2783L61.299 61.7749ZM13.716 61.7749L16.1724 59.2817C16.168 59.2773 16.1636 59.273 16.1591 59.2687L13.716 61.7749ZM3.74886 33.4469L7.22337 33.8686L7.22433 33.8605L3.74886 33.4469ZM71.249 33.4662L67.773 33.8754L67.7746 33.8886L71.249 33.4662ZM71.249 33.5387L72.8637 36.644C74.1546 35.9727 74.8956 34.5729 74.7248 33.128L71.249 33.5387ZM3.74886 33.5387L0.268556 33.1679C0.116153 34.5983 0.854405 35.9762 2.12966 36.6417L3.74886 33.5387ZM61.299 61.7749L63.7472 64.2762C64.5488 63.4916 64.9259 62.3703 64.7611 61.2607L61.299 61.7749ZM13.716 61.7749L10.2531 61.2664C10.0907 62.3725 10.4664 63.4897 11.2643 64.2728L13.716 61.7749ZM68 37.51C68 46.0346 64.5026 53.7491 58.8525 59.272L63.7456 64.2778C70.6927 57.487 75 47.988 75 37.51H68ZM58.8461 59.2783C53.3367 64.6912 45.8153 68.01 37.4989 68.01V75.01C47.7224 75.01 56.9858 70.9192 63.752 64.2715L58.8461 59.2783ZM37.4989 68.01C29.198 68.01 21.6617 64.69 16.1724 59.2817L11.2596 64.2681C18.0114 70.9203 27.2944 75.01 37.4989 75.01V68.01ZM16.1591 59.2687C10.4951 53.7472 7 46.0347 7 37.51H0C0 47.9879 4.30522 57.4888 11.2728 64.2811L16.1591 59.2687ZM7 37.51C7 36.2792 7.07849 35.0623 7.22336 33.8686L0.274351 33.0252C0.0974224 34.4831 0 35.982 0 37.51H7ZM7.22433 33.8605C9.02328 18.7441 21.8996 7.01002 37.4989 7.01002V0.0100169C18.3098 0.0100169 2.48617 14.4394 0.27338 33.0333L7.22433 33.8605ZM37.4989 7.01002C53.1184 7.01002 65.9917 18.7442 67.773 33.8754L74.725 33.057C72.5332 14.4393 56.7065 0.0100169 37.4989 0.0100169V7.01002ZM67.7746 33.8886C67.92 35.0853 68 36.2845 68 37.51H75C75 35.9768 74.8998 34.4944 74.7234 33.0439L67.7746 33.8886ZM69.6343 30.4335C60.7111 35.0735 50.3657 37.8628 38.1521 37.8628V44.8628C51.4885 44.8628 62.9418 41.8034 72.8637 36.644L69.6343 30.4335ZM38.1521 37.8628C25.8686 37.8628 14.2321 35.0613 5.36805 30.4358L2.12966 36.6417C12.1107 41.85 24.8811 44.8628 38.1521 44.8628V37.8628ZM7.22916 33.9096C8.8794 18.4215 22.6799 6.62858 38.0656 7.00895L38.2386 0.011086C19.2846 -0.457502 2.31298 13.9803 0.268556 33.1679L7.22916 33.9096ZM38.0656 7.00895C53.5047 7.39064 65.9784 18.7623 67.7732 33.9495L74.7248 33.128C72.519 14.4627 57.139 0.478351 38.2386 0.011086L38.0656 7.00895ZM58.8509 59.2736C53.2926 64.7137 45.8735 68.01 37.4989 68.01V75.01C47.7922 75.01 56.9452 70.9336 63.7472 64.2762L58.8509 59.2736ZM37.4989 68.01C29.1399 68.01 21.7057 64.7126 16.1676 59.277L11.2643 64.2728C18.052 70.9348 27.2247 75.01 37.4989 75.01V68.01ZM17.1788 62.2834C18.6218 52.4578 27.6153 44.8628 38.1521 44.8628V37.8628C24.3614 37.8628 12.2319 47.792 10.2531 61.2664L17.1788 62.2834ZM38.1521 44.8628C48.4493 44.8628 56.342 52.2229 57.837 62.2891L64.7611 61.2607C62.7956 48.0269 52.178 37.8628 38.1521 37.8628V44.8628Z" fill="#FDDA38"/>
</svg>
