<svg width="278" height="278" viewBox="0 0 278 278" fill="none" xmlns="http://www.w3.org/2000/svg">
<mask id="mask0_1_4440" style="mask-type:luminance" maskUnits="userSpaceOnUse" x="0" y="0" width="278" height="278">
<path fill-rule="evenodd" clip-rule="evenodd" d="M0 0H278V278H0V0Z" fill="white"/>
</mask>
<g mask="url(#mask0_1_4440)">
<path fill-rule="evenodd" clip-rule="evenodd" d="M139 0C62.2326 0 0 62.2326 0 139C0 215.767 62.2326 278 139 278C215.767 278 278 215.767 278 139C278 62.2326 215.767 0 139 0Z" fill="#EFF3F9"/>
</g>
<path fill-rule="evenodd" clip-rule="evenodd" d="M105.924 231.359C95.9398 231.359 87.8457 223.265 87.8457 213.281C87.8457 203.296 95.9398 195.203 105.924 195.203C115.908 195.203 124.002 203.296 124.002 213.281C124.002 223.265 115.908 231.359 105.924 231.359Z" fill="white"/>
<path fill-rule="evenodd" clip-rule="evenodd" d="M69.3657 193.943C66.4516 193.943 64.0894 191.581 64.0894 188.666C64.0894 185.752 66.4516 183.389 69.3657 183.389C72.2807 183.389 74.6429 185.752 74.6429 188.666C74.6429 191.581 72.2807 193.943 69.3657 193.943Z" fill="white"/>
<path fill-rule="evenodd" clip-rule="evenodd" d="M155.908 220.314C153.966 220.314 152.392 218.739 152.392 216.797C152.392 214.855 153.966 213.281 155.908 213.281C157.85 213.281 159.424 214.855 159.424 216.797C159.424 218.739 157.85 220.314 155.908 220.314Z" fill="white"/>
<path fill-rule="evenodd" clip-rule="evenodd" d="M204.568 54.2925C202.626 54.2925 201.052 52.7185 201.052 50.7765C201.052 48.8345 202.626 47.2605 204.568 47.2605C206.51 47.2605 208.084 48.8345 208.084 50.7765C208.084 52.7185 206.51 54.2925 204.568 54.2925Z" fill="white"/>
<path fill-rule="evenodd" clip-rule="evenodd" d="M188.822 86.2386H196.695V85.5532C196.695 83.24 194.82 81.3647 192.506 81.3647H169.908C167.595 81.3647 165.72 83.24 165.72 85.5532V152.35H183.282V91.7785C183.282 88.7189 185.762 86.2386 188.822 86.2386Z" fill="#E0E8F6"/>
<mask id="mask1_1_4440" style="mask-type:luminance" maskUnits="userSpaceOnUse" x="0" y="-1" width="278" height="279">
<path fill-rule="evenodd" clip-rule="evenodd" d="M0 278H278V-0.000244141H0V278Z" fill="white"/>
</mask>
<g mask="url(#mask1_1_4440)">
<path fill-rule="evenodd" clip-rule="evenodd" d="M141.945 152.35H161.151V94.5608H141.945V152.35Z" fill="#D0DBF0"/>
<path fill-rule="evenodd" clip-rule="evenodd" d="M189.643 78.1878H172.772C172.127 78.1878 171.605 77.6655 171.605 77.0203V70.1748C171.605 69.5304 172.127 69.0073 172.772 69.0073H189.643C190.288 69.0073 190.81 69.5304 190.81 70.1748V77.0203C190.81 77.6655 190.288 78.1878 189.643 78.1878Z" fill="#E0E8F6"/>
<path fill-rule="evenodd" clip-rule="evenodd" d="M137.784 152.35H98.6838V53.9654C98.6838 51.8065 100.713 50.222 102.808 50.7443L135.267 58.8416C136.747 59.2104 137.784 60.5386 137.784 62.0627V152.35Z" fill="#D0DBF0"/>
<path fill-rule="evenodd" clip-rule="evenodd" d="M81.3511 152.35V118.343C81.3511 115.294 83.8225 112.822 86.8725 112.822H93.1363V152.35H81.3511Z" fill="#E0E8F6"/>
<path fill-rule="evenodd" clip-rule="evenodd" d="M179.821 145.878C179.011 145.878 178.354 145.221 178.354 144.411V92.7908C178.354 91.9801 179.011 91.3245 179.821 91.3245C180.63 91.3245 181.287 91.9801 181.287 92.7908V144.411C181.287 145.221 180.63 145.878 179.821 145.878Z" fill="#C0CBE2"/>
<path fill-rule="evenodd" clip-rule="evenodd" d="M171.684 145.878C170.874 145.878 170.218 145.221 170.218 144.411V92.7908C170.218 91.9801 170.874 91.3245 171.684 91.3245C172.494 91.3245 173.15 91.9801 173.15 92.7908V144.411C173.15 145.221 172.494 145.878 171.684 145.878Z" fill="#C0CBE2"/>
<path fill-rule="evenodd" clip-rule="evenodd" d="M130.369 73.5978H107.22C105.952 73.5978 104.926 72.5701 104.926 71.3031C104.926 70.0352 105.952 69.0076 107.22 69.0076H130.369C131.637 69.0076 132.664 70.0352 132.664 71.3031C132.664 72.5701 131.637 73.5978 130.369 73.5978Z" fill="#C1CAE7"/>
<path fill-rule="evenodd" clip-rule="evenodd" d="M130.369 83.6595H107.22C105.952 83.6595 104.926 82.6319 104.926 81.3648C104.926 80.097 105.952 79.0693 107.22 79.0693H130.369C131.637 79.0693 132.664 80.097 132.664 81.3648C132.664 82.6319 131.637 83.6595 130.369 83.6595Z" fill="#C1CAE7"/>
<path fill-rule="evenodd" clip-rule="evenodd" d="M130.369 93.7216H107.22C105.952 93.7216 104.926 92.6939 104.926 91.4261C104.926 90.159 105.952 89.1313 107.22 89.1313H130.369C131.637 89.1313 132.664 90.159 132.664 91.4261C132.664 92.6939 131.637 93.7216 130.369 93.7216Z" fill="#C1CAE7"/>
<path fill-rule="evenodd" clip-rule="evenodd" d="M130.369 103.783H107.22C105.952 103.783 104.926 102.756 104.926 101.489C104.926 100.221 105.952 99.1931 107.22 99.1931H130.369C131.637 99.1931 132.664 100.221 132.664 101.489C132.664 102.756 131.637 103.783 130.369 103.783Z" fill="#C1CAE7"/>
<path fill-rule="evenodd" clip-rule="evenodd" d="M130.369 113.845H107.22C105.952 113.845 104.926 112.818 104.926 111.551C104.926 110.283 105.952 109.255 107.22 109.255H130.369C131.637 109.255 132.664 110.283 132.664 111.551C132.664 112.818 131.637 113.845 130.369 113.845Z" fill="#C1CAE7"/>
<path fill-rule="evenodd" clip-rule="evenodd" d="M130.369 123.907H107.22C105.952 123.907 104.926 122.88 104.926 121.612C104.926 120.345 105.952 119.317 107.22 119.317H130.369C131.637 119.317 132.664 120.345 132.664 121.612C132.664 122.88 131.637 123.907 130.369 123.907Z" fill="#C1CAE7"/>
<path fill-rule="evenodd" clip-rule="evenodd" d="M130.369 133.969H107.22C105.952 133.969 104.926 132.942 104.926 131.675C104.926 130.407 105.952 129.379 107.22 129.379H130.369C131.637 129.379 132.664 130.407 132.664 131.675C132.664 132.942 131.637 133.969 130.369 133.969Z" fill="#C1CAE7"/>
<path fill-rule="evenodd" clip-rule="evenodd" d="M130.369 144.031H107.22C105.952 144.031 104.926 143.004 104.926 141.737C104.926 140.468 105.952 139.441 107.22 139.441H130.369C131.637 139.441 132.664 140.468 132.664 141.737C132.664 143.004 131.637 144.031 130.369 144.031Z" fill="#C1CAE7"/>
<path fill-rule="evenodd" clip-rule="evenodd" d="M72.3318 152.35H41.3564V91.2455C41.3564 88.48 43.5981 86.2383 46.3637 86.2383H67.3253C70.0901 86.2383 72.3318 88.48 72.3318 91.2455V152.35Z" fill="#E0E8F6"/>
<path fill-rule="evenodd" clip-rule="evenodd" d="M66.4674 99.413H47.222C46.1437 99.413 45.2695 98.5397 45.2695 97.4614V97.3875C45.2695 96.3092 46.1437 95.4351 47.222 95.4351H66.4674C67.5449 95.4351 68.4191 96.3092 68.4191 97.3875V97.4614C68.4191 98.5397 67.5449 99.413 66.4674 99.413Z" fill="#C1CAE7"/>
<path fill-rule="evenodd" clip-rule="evenodd" d="M66.4674 108.132H47.222C46.1437 108.132 45.2695 107.259 45.2695 106.181V106.107C45.2695 105.028 46.1437 104.154 47.222 104.154H66.4674C67.5449 104.154 68.4191 105.028 68.4191 106.107V106.181C68.4191 107.259 67.5449 108.132 66.4674 108.132Z" fill="#C1CAE7"/>
<path fill-rule="evenodd" clip-rule="evenodd" d="M66.4674 116.852H47.222C46.1437 116.852 45.2695 115.978 45.2695 114.9V114.826C45.2695 113.748 46.1437 112.874 47.222 112.874H66.4674C67.5449 112.874 68.4191 113.748 68.4191 114.826V114.9C68.4191 115.978 67.5449 116.852 66.4674 116.852Z" fill="#C1CAE7"/>
<path fill-rule="evenodd" clip-rule="evenodd" d="M66.4674 125.571H47.222C46.1437 125.571 45.2695 124.697 45.2695 123.619V123.545C45.2695 122.467 46.1437 121.593 47.222 121.593H66.4674C67.5449 121.593 68.4191 122.467 68.4191 123.545V123.619C68.4191 124.697 67.5449 125.571 66.4674 125.571Z" fill="#C1CAE7"/>
<path fill-rule="evenodd" clip-rule="evenodd" d="M66.4674 134.29H47.222C46.1437 134.29 45.2695 133.416 45.2695 132.339V132.265C45.2695 131.186 46.1437 130.312 47.222 130.312H66.4674C67.5449 130.312 68.4191 131.186 68.4191 132.265V132.339C68.4191 133.416 67.5449 134.29 66.4674 134.29Z" fill="#C1CAE7"/>
<path fill-rule="evenodd" clip-rule="evenodd" d="M66.4674 143.009H47.222C46.1437 143.009 45.2695 142.136 45.2695 141.057V140.983C45.2695 139.906 46.1437 139.032 47.222 139.032H66.4674C67.5449 139.032 68.4191 139.906 68.4191 140.983V141.057C68.4191 142.136 67.5449 143.009 66.4674 143.009Z" fill="#C1CAE7"/>
<path fill-rule="evenodd" clip-rule="evenodd" d="M223.07 155.124H185.155V94.552C185.155 91.4924 187.635 89.0129 190.694 89.0129H217.53C220.59 89.0129 223.07 91.4924 223.07 94.552V155.124Z" fill="#E0E8F6"/>
<path fill-rule="evenodd" clip-rule="evenodd" d="M216.291 102.187H191.933C190.835 102.187 189.945 101.297 189.945 100.198C189.945 99.1003 190.835 98.2092 191.933 98.2092H216.291C217.39 98.2092 218.281 99.1003 218.281 100.198C218.281 101.297 217.39 102.187 216.291 102.187Z" fill="#C1CAE7"/>
<path fill-rule="evenodd" clip-rule="evenodd" d="M216.291 110.906H191.933C190.835 110.906 189.945 110.016 189.945 108.917C189.945 107.819 190.835 106.928 191.933 106.928H216.291C217.39 106.928 218.281 107.819 218.281 108.917C218.281 110.016 217.39 110.906 216.291 110.906Z" fill="#C1CAE7"/>
<path fill-rule="evenodd" clip-rule="evenodd" d="M216.291 119.626H191.933C190.835 119.626 189.945 118.735 189.945 117.636C189.945 116.538 190.835 115.648 191.933 115.648H216.291C217.39 115.648 218.281 116.538 218.281 117.636C218.281 118.735 217.39 119.626 216.291 119.626Z" fill="#C1CAE7"/>
<path fill-rule="evenodd" clip-rule="evenodd" d="M90.7722 89.1311C87.7375 89.1311 85.2765 86.6709 85.2765 83.6362V73.5615H64.9351V82.7516H70.2572C73.4301 82.7516 76.002 85.3235 76.002 88.4964V152.35H79.0359V116.261C79.0359 112.893 81.7653 110.164 85.1326 110.164H93.136V89.1311H90.7722Z" fill="#D0DBF0"/>
<path fill-rule="evenodd" clip-rule="evenodd" d="M186.71 63.0568H175.705C175.06 63.0568 174.537 62.5346 174.537 61.8894V56.4692C174.537 55.824 175.06 55.3018 175.705 55.3018H186.71C187.355 55.3018 187.877 55.824 187.877 56.4692V61.8894C187.877 62.5346 187.355 63.0568 186.71 63.0568Z" fill="#E0E8F6"/>
<path fill-rule="evenodd" clip-rule="evenodd" d="M183.282 53.1171H179.133V42.3321C179.133 41.8926 179.489 41.5359 179.928 41.5359H182.487C182.927 41.5359 183.282 41.8926 183.282 42.3321V53.1171Z" fill="#E0E8F6"/>
<path fill-rule="evenodd" clip-rule="evenodd" d="M193.575 162.521H71.5391C69.8165 162.521 68.4185 161.124 68.4185 159.4C68.4185 157.677 69.8165 156.279 71.5391 156.279H193.575C195.298 156.279 196.695 157.677 196.695 159.4C196.695 161.124 195.298 162.521 193.575 162.521Z" fill="#7E89A0"/>
<path fill-rule="evenodd" clip-rule="evenodd" d="M267.854 168.069C267.854 159.781 261.135 153.061 252.847 153.061H241.416H233.681H36.8584C34.4914 153.061 32.5727 151.143 32.5727 148.776C32.5727 146.409 34.4914 144.49 36.8584 144.49H38.1207V138.054H30.0121C21.7235 138.054 15.0049 144.773 15.0049 153.061C15.0049 161.35 21.7235 168.069 30.0121 168.069H237.84H248.561C250.929 168.069 252.847 169.987 252.847 172.354C252.847 174.721 250.929 176.639 248.561 176.639H240.538H219.442C217.664 176.639 216.223 178.081 216.223 179.858C216.223 181.635 217.664 183.076 219.442 183.076H253.024V183.067C261.23 182.971 267.854 176.297 267.854 168.069Z" fill="#919DB6"/>
<path fill-rule="evenodd" clip-rule="evenodd" d="M203.801 176.639H183.038C181.261 176.639 179.821 178.081 179.821 179.858C179.821 181.635 181.261 183.076 183.038 183.076H203.801C205.578 183.076 207.019 181.635 207.019 179.858C207.019 178.081 205.578 176.639 203.801 176.639Z" fill="#919DB6"/>
<path fill-rule="evenodd" clip-rule="evenodd" d="M106.933 207.959H163.979L174.826 232.063H96.4875L106.933 207.959Z" fill="#DCE3ED"/>
<path fill-rule="evenodd" clip-rule="evenodd" d="M96.4878 235.277H174.826V232.063H96.4878V235.277Z" fill="#B3C5D0"/>
<path fill-rule="evenodd" clip-rule="evenodd" d="M153.196 223.426H129.091C127.205 223.426 125.677 221.897 125.677 220.011C125.677 218.125 127.205 216.596 129.091 216.596H153.196C155.081 216.596 156.61 218.125 156.61 220.011C156.61 221.897 155.081 223.426 153.196 223.426Z" fill="#B3C5D0"/>
<path fill-rule="evenodd" clip-rule="evenodd" d="M139.151 152.683C115.887 152.683 97.6018 134.764 97.6018 111.966C97.6018 89.1672 115.886 71.249 139.151 71.249C162.415 71.249 180.7 89.1672 180.7 111.966C180.7 134.764 162.414 152.683 139.151 152.683Z" fill="white"/>
<path fill-rule="evenodd" clip-rule="evenodd" d="M139.151 144.225C120.719 144.225 106.232 130.028 106.232 111.966C106.232 93.9032 120.719 79.7067 139.151 79.7067C157.582 79.7067 172.069 93.9032 172.069 111.966C172.069 130.028 157.581 144.225 139.151 144.225ZM139.151 52.4258C105.734 52.4258 78.3955 79.2174 78.3955 111.966C78.3955 156.621 139.151 222.541 139.151 222.541C139.151 222.541 199.906 156.621 199.906 111.966C199.906 79.2174 172.568 52.4258 139.151 52.4258Z" fill="#FDDA38"/>
</g>
<mask id="mask2_1_4440" style="mask-type:luminance" maskUnits="userSpaceOnUse" x="78" y="52" width="62" height="171">
<path fill-rule="evenodd" clip-rule="evenodd" d="M78.3955 52.4783H139.15V222.594H78.3955V52.4783Z" fill="white"/>
</mask>
<g mask="url(#mask2_1_4440)">
<path fill-rule="evenodd" clip-rule="evenodd" d="M139.151 144.278C120.719 144.278 106.232 130.081 106.232 112.019C106.232 93.9557 120.719 79.76 139.151 79.76C157.582 79.76 172.069 93.9557 172.069 112.019C172.069 130.081 157.581 144.278 139.151 144.278ZM139.151 52.4783C105.734 52.4783 78.3955 79.2707 78.3955 112.019C78.3955 156.674 139.151 222.594 139.151 222.594C139.151 222.594 199.906 156.674 199.906 112.019C199.906 79.2707 172.568 52.4783 139.151 52.4783Z" fill="#FDDA38"/>
</g>
<path fill-rule="evenodd" clip-rule="evenodd" d="M141.042 96.9788V99.7106H143.564V98.2394C143.564 97.1957 142.717 96.3489 141.672 96.3489C141.324 96.3489 141.042 96.6309 141.042 96.9788Z" fill="#E9E3D5"/>
<path fill-rule="evenodd" clip-rule="evenodd" d="M159.567 116.682C159.267 116.385 159.113 115.97 159.113 115.546V111.478C159.113 109.841 158.581 108.248 157.599 106.94L153.06 100.887C152.108 99.6176 150.613 98.8704 149.026 98.8704H136.794C135.001 98.8704 133.341 99.8225 132.438 101.372L128.014 108.956L122.716 109.592C122.554 109.611 122.393 109.638 122.235 109.672L118.264 114.556V119.042C118.264 120.435 119.392 121.564 120.785 121.564H157.515C158.908 121.564 160.037 120.435 160.037 119.042V117.805C160.037 117.383 159.868 116.979 159.567 116.682Z" fill="#FFB545"/>
<path fill-rule="evenodd" clip-rule="evenodd" d="M159.569 116.683C159.267 116.386 159.113 115.971 159.113 115.547V114V111.478C159.113 109.907 158.613 108.291 157.599 106.94L153.06 100.887C152.541 100.195 151.859 99.6587 151.089 99.3132C150.389 100.19 150.339 101.461 151.043 102.4L153.975 106.308L151.383 108.956H154.053C155.438 108.956 156.583 110.067 156.591 111.451V111.478V115.547V115.564C156.592 116.023 156.074 116.298 155.708 116.021C154.549 115.148 153.108 114.63 151.548 114.63C148.613 114.63 146.101 116.462 145.09 119.042H143.563V101.392H141.041V119.042H130.974C129.999 116.818 127.778 115.26 125.198 115.26C122.619 115.26 120.399 116.818 119.425 119.042H118.264C118.264 120.435 119.392 121.564 120.785 121.564H157.515C158.908 121.564 160.037 120.435 160.037 119.042V117.853C160.037 117.418 159.879 116.989 159.569 116.683Z" fill="#FF7E40"/>
<path fill-rule="evenodd" clip-rule="evenodd" d="M135.957 112.109H138.478C138.826 112.109 139.109 111.826 139.109 111.478C139.109 111.13 138.826 110.848 138.478 110.848H135.957C135.608 110.848 135.326 111.13 135.326 111.478C135.326 111.826 135.608 112.109 135.957 112.109Z" fill="#35404A"/>
<path fill-rule="evenodd" clip-rule="evenodd" d="M146.043 112.109H148.564C148.912 112.109 149.195 111.826 149.195 111.478C149.195 111.13 148.912 110.848 148.564 110.848H146.043C145.694 110.848 145.412 111.13 145.412 111.478C145.412 111.826 145.694 112.109 146.043 112.109Z" fill="#35404A"/>
<path fill-rule="evenodd" clip-rule="evenodd" d="M134.616 102.643L130.933 108.956H141.042V101.392H136.794C135.901 101.392 135.066 101.871 134.616 102.643Z" fill="#87F8F4"/>
<path fill-rule="evenodd" clip-rule="evenodd" d="M153.691 105.931L151.043 102.4C150.567 101.765 149.82 101.392 149.026 101.392H143.563V108.956H152.178C153.222 108.956 154.069 108.11 154.069 107.065C154.069 106.656 153.937 106.258 153.691 105.931Z" fill="#87F8F4"/>
<path fill-rule="evenodd" clip-rule="evenodd" d="M157.011 111.478C156.315 111.478 155.75 112.043 155.75 112.739C155.75 113.435 156.315 113.999 157.011 113.999H159.112V111.478H157.011Z" fill="#C5324F"/>
<path fill-rule="evenodd" clip-rule="evenodd" d="M118.955 112.011C118.951 112.017 118.947 112.025 118.943 112.032C118.899 112.108 118.856 112.186 118.816 112.264C118.462 112.957 118.265 113.738 118.265 114.556H119.713C121.107 114.556 122.235 113.428 122.235 112.035V109.672C120.869 109.968 119.666 110.806 118.955 112.011Z" fill="#E9E3D5"/>
<path fill-rule="evenodd" clip-rule="evenodd" d="M125.198 125.977C122.765 125.977 120.785 123.998 120.785 121.564C120.785 119.13 122.765 117.151 125.198 117.151C127.631 117.151 129.611 119.13 129.611 121.564C129.611 123.998 127.631 125.977 125.198 125.977Z" fill="#596775"/>
<path fill-rule="evenodd" clip-rule="evenodd" d="M126.1 117.244C125.583 118.2 125.728 119.419 126.535 120.227L123.861 122.902C123.053 122.093 121.834 121.949 120.879 122.466C121.296 124.468 123.074 125.976 125.198 125.976C127.631 125.976 129.611 123.997 129.611 121.564C129.611 119.439 128.102 117.662 126.1 117.244Z" fill="#35404A"/>
<path fill-rule="evenodd" clip-rule="evenodd" d="M127.089 121.564C127.089 122.609 126.242 123.456 125.198 123.456C124.154 123.456 123.307 122.609 123.307 121.564C123.307 120.52 124.154 119.673 125.198 119.673C126.242 119.673 127.089 120.52 127.089 121.564Z" fill="#E9E3D5"/>
<path fill-rule="evenodd" clip-rule="evenodd" d="M151.548 125.977C149.115 125.977 147.135 123.998 147.135 121.564C147.135 119.13 149.115 117.151 151.548 117.151C153.981 117.151 155.96 119.13 155.96 121.564C155.96 123.998 153.981 125.977 151.548 125.977Z" fill="#596775"/>
<path fill-rule="evenodd" clip-rule="evenodd" d="M152.45 117.244C151.933 118.2 152.077 119.419 152.885 120.227L150.211 122.902C149.402 122.093 148.184 121.949 147.228 122.466C147.646 124.468 149.423 125.976 151.548 125.976C153.981 125.976 155.96 123.997 155.96 121.564C155.96 119.439 154.451 117.662 152.45 117.244Z" fill="#35404A"/>
<path fill-rule="evenodd" clip-rule="evenodd" d="M153.439 121.564C153.439 122.609 152.592 123.456 151.548 123.456C150.504 123.456 149.657 122.609 149.657 121.564C149.657 120.52 150.504 119.673 151.548 119.673C152.592 119.673 153.439 120.52 153.439 121.564Z" fill="#E9E3D5"/>
</svg>
