<svg width="50" height="22" viewBox="0 0 50 22" fill="none" xmlns="http://www.w3.org/2000/svg">
<path d="M39.5138 17.7791C39.5138 17.9591 39.5284 18.135 39.5509 18.31C39.8121 20.3898 41.5842 22 43.7352 22C45.9444 22 47.7551 20.3011 47.938 18.14C47.9481 18.0207 47.9566 17.9004 47.9566 17.7791C47.9566 15.4481 46.0662 13.5577 43.7352 13.5577C41.4037 13.5582 39.5138 15.4481 39.5138 17.7791Z" fill="#242E42"/>
<path d="M4.61148 17.7791C4.61148 17.9591 4.62652 18.135 4.64858 18.31C4.90975 20.3898 6.68181 22 8.83285 22C11.0425 22 12.8532 20.3011 13.0362 18.14C13.0467 18.0207 13.0547 17.9004 13.0547 17.7791C13.0547 15.4481 11.1649 13.5577 8.83335 13.5577C6.50185 13.5577 4.61148 15.4481 4.61148 17.7791Z" fill="#242E42"/>
<path fill-rule="evenodd" clip-rule="evenodd" d="M0.305381 18.7505L3.68909 18.6979C3.68387 18.667 3.67814 18.6361 3.6724 18.6053L3.67238 18.6052C3.66213 18.5501 3.65187 18.495 3.64448 18.4387C3.6139 18.1996 3.59936 17.9851 3.59936 17.78C3.59936 14.8941 5.94691 12.5471 8.83233 12.5471C11.7188 12.5471 14.0663 14.8951 14.0663 17.78C14.0663 17.9304 14.0568 18.0778 14.0448 18.2267C14.0378 18.3074 14.0258 18.3865 14.0138 18.4658L14.0138 18.4659L14.0031 18.537L38.5178 18.152C38.5072 18.0237 38.5012 17.8994 38.5012 17.7806C38.5012 14.8946 40.8488 12.5476 43.7347 12.5476C46.3635 12.5476 48.5406 14.4981 48.9075 17.0271C49.1998 16.386 49.482 15.5077 49.3722 14.649C49.2502 13.6978 48.7163 12.7627 48.2752 11.9901C47.9589 11.4362 47.6902 10.9657 47.6553 10.6326C47.62 10.2969 47.6619 9.98654 47.7066 9.65531C47.768 9.19965 47.8348 8.70459 47.7134 8.05C47.5039 6.91959 45.5408 3.18848 43.5522 1.92222C42.1075 1.00235 41.0668 0.376243 36.679 0.124595C30.4976 -0.229818 26.2552 0.174222 22.5301 1.30664C20.3154 1.98037 12.7344 5.92453 10.436 7.1973C8.26055 8.40203 7.12169 8.79259 5.79181 9.24865L5.79174 9.24868C5.45823 9.36305 5.1127 9.48155 4.73579 9.61804C2.5637 10.4046 1.18364 12.1305 0.639241 13.4349C0.0948392 14.7392 -0.301682 16.3639 0.305381 18.7505ZM35.0774 7.16572L34.4277 1.65253C38.0265 1.71569 41.7611 1.99892 42.089 3.26017C42.2835 4.00759 41.2994 5.79169 40.1209 6.31654C39.2105 6.72208 37.7984 6.87548 35.0774 7.16572ZM17.9257 5.14853L17.5147 6.35113C17.5147 6.35113 18.2741 7.30057 17.6731 8.53525C17.6731 8.53525 25.1433 8.07506 31.4721 7.51312L32.1654 1.63398H31.3122C25.2767 1.63398 22.7938 2.5343 17.9257 5.14853Z" fill="#242E42"/>
</svg>
