<svg width="50" height="24" viewBox="0 0 50 24" fill="none" xmlns="http://www.w3.org/2000/svg">
<path d="M49.247 10.5507C49.1768 9.70427 49.0981 8.74647 48.9444 7.91997C48.8376 7.34191 48.6028 6.57218 47.8092 6.57218C47.7297 6.57218 47.65 6.58001 47.5714 6.58814C47.5223 6.59281 47.4732 6.59943 47.3928 6.60094C47.3912 6.60094 47.3654 6.57594 47.3328 6.48093C47.0997 5.81343 46.122 4.98316 44.8683 3.96769C44.5595 3.71849 44.1898 3.4184 44.0323 3.26361C44.0901 2.86368 44.0816 2.37251 43.8031 2.03402C43.6738 1.87606 43.4305 1.68739 43.011 1.68739C42.9494 1.68739 42.8839 1.69116 42.7381 1.70411C42.4355 1.70411 41.829 1.57973 40.9892 1.40612C38.8239 0.961775 34.7937 0.133767 28.7504 0.00351968C19.9511 -0.170695 13.0366 6.17918 12.7515 6.4466L12.5477 6.63602C12.1863 6.81069 11.0451 7.22823 7.55688 7.91394C2.6093 8.88816 1.6655 10.4644 1.48722 11.0739C1.09227 11.3687 0.452627 12.0719 0.35129 12.8992C0.269829 13.5588 0.0853757 13.8287 0.0853757 13.8279L0 13.938V18.5943L0.00963676 18.6793C0.27781 19.9158 1.55935 20.57 3.71557 20.57C4.40325 20.57 4.91911 20.4999 4.89909 20.4999C4.92905 20.4982 5.19497 20.4937 5.65572 20.4842C5.60859 20.3539 5.56568 20.2222 5.52864 20.0873C5.4928 19.9572 5.45998 19.8262 5.43468 19.692C5.37385 19.3761 5.33967 19.051 5.33967 18.7174C5.33967 15.8558 7.6677 13.5277 10.5292 13.5277C13.3907 13.5277 15.7189 15.8558 15.7189 18.7174C15.7189 18.9762 15.6936 19.2272 15.6573 19.4759C15.6375 19.6109 15.6144 19.7449 15.584 19.8759C15.5528 20.0115 15.5202 20.1457 15.4787 20.2775C21.9592 20.1386 30.2052 19.9554 36.5917 19.7949C36.5635 19.6639 36.5456 19.5312 36.5277 19.397C36.5098 19.2645 36.4995 19.132 36.4926 18.998C36.4879 18.9044 36.4786 18.8125 36.4786 18.7174C36.4786 15.8558 38.8068 13.5277 41.6681 13.5277C44.4892 13.5277 46.7877 15.7918 46.8517 18.5989C46.8517 18.6379 46.8578 18.6775 46.8578 18.7174C46.8578 18.8179 46.8485 18.9161 46.8422 19.0159C46.8344 19.1578 46.8203 19.2989 46.8017 19.4377C48.021 19.2365 48.938 18.594 49.469 17.5548C50.3772 15.7778 49.9142 13.3718 49.5882 12.8609C49.4122 12.5845 49.3249 11.5038 49.247 10.5507Z" fill="#242E42"/>
<path d="M6.50148 20.4655C7.17786 22.0202 8.72516 23.1078 10.5286 23.1078C12.3968 23.1078 13.988 21.939 14.6227 20.2955C14.673 20.1645 14.7179 20.0304 14.7561 19.8932C14.7927 19.7622 14.8231 19.628 14.8481 19.4924C14.8925 19.2406 14.9205 18.9816 14.9205 18.7167C14.9205 16.2911 12.9549 14.3254 10.5293 14.3254C8.10374 14.3254 6.13814 16.2911 6.13814 18.7167C6.13814 19.0458 6.17714 19.366 6.2461 19.6749C6.27532 19.809 6.3104 19.9408 6.35286 20.0694C6.39623 20.2052 6.44577 20.336 6.50148 20.4655Z" fill="#242E42"/>
<path d="M37.4082 19.7732C37.8822 21.6865 39.607 23.1078 41.6669 23.1078C43.8204 23.1078 45.6083 21.5555 45.9825 19.5103C46.0066 19.3778 46.0253 19.2444 46.0385 19.1079C46.0502 18.9786 46.0581 18.8491 46.0581 18.7166C46.0581 18.7134 46.0581 18.7103 46.0581 18.7064C46.0534 16.2863 44.0886 14.3252 41.6669 14.3252C39.242 14.3252 37.2757 16.291 37.2757 18.7166C37.2757 18.8047 37.2843 18.8904 37.2889 18.9777C37.2968 19.1126 37.31 19.245 37.3302 19.3761C37.3505 19.5104 37.377 19.6429 37.4082 19.7732Z" fill="#242E42"/>
</svg>
