<svg width="29" height="29" viewBox="0 0 29 29" fill="none" xmlns="http://www.w3.org/2000/svg">
<path fill-rule="evenodd" clip-rule="evenodd" d="M0.416641 19.5297L2.47885 21.5919C3.85978 20.677 5.73865 20.8279 6.95533 22.0446C8.17201 23.2613 8.3229 25.1401 7.408 26.5211L9.47021 28.5833C10.0258 29.1388 10.9265 29.1388 11.4821 28.5833L16.5119 23.5535L14.5 21.5416C13.9444 20.986 13.9444 20.0853 14.5 19.5297C15.0555 18.9741 15.9563 18.9741 16.5119 19.5297L18.5238 21.5416L28.5833 11.4821C29.1389 10.9265 29.1389 10.0258 28.5833 9.47019L26.5211 7.40798C25.1402 8.32288 23.2613 8.17199 22.0446 6.95531C20.8279 5.73863 20.677 3.85976 21.5919 2.47883L19.5297 0.416621C18.9742 -0.138951 18.0734 -0.138951 17.5178 0.416621L7.45831 10.4761L9.47021 12.488C10.0258 13.0436 10.0258 13.9444 9.47021 14.4999C8.91464 15.0555 8.01388 15.0555 7.45831 14.4999L5.4464 12.488L0.416641 17.5178C-0.138931 18.0734 -0.138931 18.9741 0.416641 19.5297ZM10.4762 17.5178C9.92059 16.9622 9.92059 16.0615 10.4762 15.5059C11.0317 14.9503 11.9325 14.9503 12.4881 15.5059L13.494 16.5119C14.0496 17.0674 14.0496 17.9682 13.494 18.5238C12.9384 19.0793 12.0377 19.0793 11.4821 18.5238L10.4762 17.5178Z" fill="#C8C7CC"/>
</svg>
