<svg width="20" height="20" viewBox="0 0 20 20" fill="none" xmlns="http://www.w3.org/2000/svg">
<rect width="20" height="20" fill="#FF0000" fill-opacity="0.01"/>
<path fill-rule="evenodd" clip-rule="evenodd" d="M14.3347 13.1825L17.0945 15.9423C17.4131 16.26 17.4131 16.7766 17.0945 17.0944C16.7767 17.413 16.2609 17.413 15.9423 17.0944L13.1826 14.3347C12.0785 15.1926 10.6917 15.7035 9.18518 15.7035C5.58537 15.7035 2.66675 12.7849 2.66675 9.18509C2.66675 5.58529 5.58537 2.66666 9.18518 2.66666C12.785 2.66666 15.7036 5.58529 15.7036 9.18509C15.7036 10.6917 15.1927 12.0785 14.3347 13.1825ZM4.29636 9.18509C4.29636 11.8854 6.48492 14.0739 9.18518 14.0739C11.8854 14.0739 14.074 11.8854 14.074 9.18509C14.074 6.48483 11.8854 4.29627 9.18518 4.29627C6.48492 4.29627 4.29636 6.48483 4.29636 9.18509Z" fill="black"/>
<mask id="mask0_1_5956" style="mask-type:luminance" maskUnits="userSpaceOnUse" x="2" y="2" width="16" height="16">
<path fill-rule="evenodd" clip-rule="evenodd" d="M14.3347 13.1825L17.0945 15.9423C17.4131 16.26 17.4131 16.7766 17.0945 17.0944C16.7767 17.413 16.2609 17.413 15.9423 17.0944L13.1826 14.3347C12.0785 15.1926 10.6917 15.7035 9.18518 15.7035C5.58537 15.7035 2.66675 12.7849 2.66675 9.18509C2.66675 5.58529 5.58537 2.66666 9.18518 2.66666C12.785 2.66666 15.7036 5.58529 15.7036 9.18509C15.7036 10.6917 15.1927 12.0785 14.3347 13.1825ZM4.29636 9.18509C4.29636 11.8854 6.48492 14.0739 9.18518 14.0739C11.8854 14.0739 14.074 11.8854 14.074 9.18509C14.074 6.48483 11.8854 4.29627 9.18518 4.29627C6.48492 4.29627 4.29636 6.48483 4.29636 9.18509Z" fill="white"/>
</mask>
<g mask="url(#mask0_1_5956)">
<rect width="20" height="20" fill="white"/>
</g>
</svg>
