<svg width="278" height="278" viewBox="0 0 278 278" fill="none" xmlns="http://www.w3.org/2000/svg">
<mask id="mask0_1_4372" style="mask-type:luminance" maskUnits="userSpaceOnUse" x="0" y="0" width="278" height="278">
<path fill-rule="evenodd" clip-rule="evenodd" d="M0 0H278V278H0V0Z" fill="white"/>
</mask>
<g mask="url(#mask0_1_4372)">
<path fill-rule="evenodd" clip-rule="evenodd" d="M139 0C62.2326 0 0 62.2326 0 139C0 215.767 62.2326 278 139 278C215.767 278 278 215.767 278 139C278 62.2326 215.767 0 139 0Z" fill="#EFF3F9"/>
</g>
<path fill-rule="evenodd" clip-rule="evenodd" d="M105.924 231.359C95.9397 231.359 87.8456 223.265 87.8456 213.281C87.8456 203.296 95.9397 195.203 105.924 195.203C115.908 195.203 124.002 203.296 124.002 213.281C124.002 223.265 115.908 231.359 105.924 231.359Z" fill="white"/>
<path fill-rule="evenodd" clip-rule="evenodd" d="M69.3659 193.943C66.4517 193.943 64.0895 191.581 64.0895 188.666C64.0895 185.752 66.4517 183.389 69.3659 183.389C72.2808 183.389 74.643 185.752 74.643 188.666C74.643 191.581 72.2808 193.943 69.3659 193.943Z" fill="white"/>
<path fill-rule="evenodd" clip-rule="evenodd" d="M155.908 220.314C153.966 220.314 152.392 218.739 152.392 216.797C152.392 214.855 153.966 213.281 155.908 213.281C157.85 213.281 159.424 214.855 159.424 216.797C159.424 218.739 157.85 220.314 155.908 220.314Z" fill="white"/>
<path fill-rule="evenodd" clip-rule="evenodd" d="M204.568 54.2925C202.626 54.2925 201.052 52.7185 201.052 50.7765C201.052 48.8345 202.626 47.2605 204.568 47.2605C206.51 47.2605 208.084 48.8345 208.084 50.7765C208.084 52.7185 206.51 54.2925 204.568 54.2925Z" fill="white"/>
<path fill-rule="evenodd" clip-rule="evenodd" d="M183.568 94.3008H191.441V93.6155C191.441 91.3023 189.566 89.427 187.252 89.427H164.655C162.341 89.427 160.466 91.3023 160.466 93.6155V160.412H178.028V99.8408C178.028 96.7803 180.509 94.3008 183.568 94.3008Z" fill="#E0E8F6"/>
<mask id="mask1_1_4372" style="mask-type:luminance" maskUnits="userSpaceOnUse" x="0" y="-1" width="278" height="279">
<path fill-rule="evenodd" clip-rule="evenodd" d="M0 278H278V-0.000244141H0V278Z" fill="white"/>
</mask>
<g mask="url(#mask1_1_4372)">
<path fill-rule="evenodd" clip-rule="evenodd" d="M136.691 160.412H155.897V102.622H136.691V160.412Z" fill="#D0DBF0"/>
<path fill-rule="evenodd" clip-rule="evenodd" d="M184.389 86.25H167.519C166.873 86.25 166.351 85.7269 166.351 85.0826V78.237C166.351 77.5926 166.873 77.0696 167.519 77.0696H184.389C185.034 77.0696 185.556 77.5926 185.556 78.237V85.0826C185.556 85.7269 185.034 86.25 184.389 86.25Z" fill="#E0E8F6"/>
<path fill-rule="evenodd" clip-rule="evenodd" d="M132.53 160.412H93.4298V62.0276C93.4298 59.8687 95.4586 58.2835 97.554 58.8065L130.013 66.9039C131.493 67.2727 132.53 68.6008 132.53 70.125V160.412Z" fill="#D0DBF0"/>
<path fill-rule="evenodd" clip-rule="evenodd" d="M76.0972 160.412V126.405C76.0972 123.356 78.5686 120.884 81.6186 120.884H87.8824V160.412H76.0972Z" fill="#E0E8F6"/>
<path fill-rule="evenodd" clip-rule="evenodd" d="M174.567 153.94C173.757 153.94 173.101 153.283 173.101 152.474V100.852C173.101 100.042 173.757 99.386 174.567 99.386C175.377 99.386 176.033 100.042 176.033 100.852V152.474C176.033 153.283 175.377 153.94 174.567 153.94Z" fill="#C0CBE2"/>
<path fill-rule="evenodd" clip-rule="evenodd" d="M166.43 153.94C165.62 153.94 164.964 153.283 164.964 152.474V100.852C164.964 100.042 165.62 99.386 166.43 99.386C167.24 99.386 167.896 100.042 167.896 100.852V152.474C167.896 153.283 167.24 153.94 166.43 153.94Z" fill="#C0CBE2"/>
<path fill-rule="evenodd" clip-rule="evenodd" d="M125.115 81.6595H101.966C100.698 81.6595 99.6716 80.6319 99.6716 79.3648C99.6716 78.097 100.698 77.0693 101.966 77.0693H125.115C126.383 77.0693 127.41 78.097 127.41 79.3648C127.41 80.6319 126.383 81.6595 125.115 81.6595Z" fill="#C1CAE7"/>
<path fill-rule="evenodd" clip-rule="evenodd" d="M125.115 91.7216H101.966C100.698 91.7216 99.6716 90.6939 99.6716 89.4269C99.6716 88.159 100.698 87.1313 101.966 87.1313H125.115C126.383 87.1313 127.41 88.159 127.41 89.4269C127.41 90.6939 126.383 91.7216 125.115 91.7216Z" fill="#C1CAE7"/>
<path fill-rule="evenodd" clip-rule="evenodd" d="M125.115 101.783H101.966C100.698 101.783 99.6716 100.756 99.6716 99.4886C99.6716 98.2208 100.698 97.1931 101.966 97.1931H125.115C126.383 97.1931 127.41 98.2208 127.41 99.4886C127.41 100.756 126.383 101.783 125.115 101.783Z" fill="#C1CAE7"/>
<path fill-rule="evenodd" clip-rule="evenodd" d="M125.115 111.846H101.966C100.698 111.846 99.6716 110.818 99.6716 109.55C99.6716 108.282 100.698 107.255 101.966 107.255H125.115C126.383 107.255 127.41 108.282 127.41 109.55C127.41 110.818 126.383 111.846 125.115 111.846Z" fill="#C1CAE7"/>
<path fill-rule="evenodd" clip-rule="evenodd" d="M125.115 121.907H101.966C100.698 121.907 99.6716 120.88 99.6716 119.613C99.6716 118.345 100.698 117.317 101.966 117.317H125.115C126.383 117.317 127.41 118.345 127.41 119.613C127.41 120.88 126.383 121.907 125.115 121.907Z" fill="#C1CAE7"/>
<path fill-rule="evenodd" clip-rule="evenodd" d="M125.115 131.969H101.966C100.698 131.969 99.6716 130.941 99.6716 129.674C99.6716 128.407 100.698 127.379 101.966 127.379H125.115C126.383 127.379 127.41 128.407 127.41 129.674C127.41 130.941 126.383 131.969 125.115 131.969Z" fill="#C1CAE7"/>
<path fill-rule="evenodd" clip-rule="evenodd" d="M125.115 142.031H101.966C100.698 142.031 99.6716 141.004 99.6716 139.737C99.6716 138.469 100.698 137.441 101.966 137.441H125.115C126.383 137.441 127.41 138.469 127.41 139.737C127.41 141.004 126.383 142.031 125.115 142.031Z" fill="#C1CAE7"/>
<path fill-rule="evenodd" clip-rule="evenodd" d="M125.115 152.093H101.966C100.698 152.093 99.6716 151.066 99.6716 149.798C99.6716 148.53 100.698 147.502 101.966 147.502H125.115C126.383 147.502 127.41 148.53 127.41 149.798C127.41 151.066 126.383 152.093 125.115 152.093Z" fill="#C1CAE7"/>
<path fill-rule="evenodd" clip-rule="evenodd" d="M67.0778 160.412H36.1025V99.3078C36.1025 96.5422 38.3442 94.3005 41.1098 94.3005H62.0714C64.8362 94.3005 67.0778 96.5422 67.0778 99.3078V160.412Z" fill="#E0E8F6"/>
<path fill-rule="evenodd" clip-rule="evenodd" d="M61.2135 107.475H41.968C40.8897 107.475 40.0164 106.602 40.0164 105.523V105.449C40.0164 104.371 40.8897 103.497 41.968 103.497H61.2135C62.2909 103.497 63.1651 104.371 63.1651 105.449V105.523C63.1651 106.602 62.2909 107.475 61.2135 107.475Z" fill="#C1CAE7"/>
<path fill-rule="evenodd" clip-rule="evenodd" d="M61.2135 116.195H41.968C40.8897 116.195 40.0164 115.32 40.0164 114.243V114.169C40.0164 113.091 40.8897 112.217 41.968 112.217H61.2135C62.2909 112.217 63.1651 113.091 63.1651 114.169V114.243C63.1651 115.32 62.2909 116.195 61.2135 116.195Z" fill="#C1CAE7"/>
<path fill-rule="evenodd" clip-rule="evenodd" d="M61.2135 124.914H41.968C40.8897 124.914 40.0164 124.04 40.0164 122.962V122.888C40.0164 121.81 40.8897 120.936 41.968 120.936H61.2135C62.2909 120.936 63.1651 121.81 63.1651 122.888V122.962C63.1651 124.04 62.2909 124.914 61.2135 124.914Z" fill="#C1CAE7"/>
<path fill-rule="evenodd" clip-rule="evenodd" d="M61.2135 133.633H41.968C40.8897 133.633 40.0164 132.759 40.0164 131.681V131.607C40.0164 130.529 40.8897 129.655 41.968 129.655H61.2135C62.2909 129.655 63.1651 130.529 63.1651 131.607V131.681C63.1651 132.759 62.2909 133.633 61.2135 133.633Z" fill="#C1CAE7"/>
<path fill-rule="evenodd" clip-rule="evenodd" d="M61.2135 142.352H41.968C40.8897 142.352 40.0164 141.478 40.0164 140.4V140.327C40.0164 139.248 40.8897 138.374 41.968 138.374H61.2135C62.2909 138.374 63.1651 139.248 63.1651 140.327V140.4C63.1651 141.478 62.2909 142.352 61.2135 142.352Z" fill="#C1CAE7"/>
<path fill-rule="evenodd" clip-rule="evenodd" d="M61.2135 151.071H41.968C40.8897 151.071 40.0164 150.197 40.0164 149.12V149.046C40.0164 147.967 40.8897 147.094 41.968 147.094H61.2135C62.2909 147.094 63.1651 147.967 63.1651 149.046V149.12C63.1651 150.197 62.2909 151.071 61.2135 151.071Z" fill="#C1CAE7"/>
<path fill-rule="evenodd" clip-rule="evenodd" d="M217.816 163.186H179.901V102.614C179.901 99.5545 182.381 97.0742 185.44 97.0742H212.276C215.336 97.0742 217.816 99.5545 217.816 102.614V163.186Z" fill="#E0E8F6"/>
<path fill-rule="evenodd" clip-rule="evenodd" d="M211.037 110.249H186.68C185.581 110.249 184.691 109.359 184.691 108.26C184.691 107.162 185.581 106.272 186.68 106.272H211.037C212.136 106.272 213.027 107.162 213.027 108.26C213.027 109.359 212.136 110.249 211.037 110.249Z" fill="#C1CAE7"/>
<path fill-rule="evenodd" clip-rule="evenodd" d="M211.037 118.968H186.68C185.581 118.968 184.691 118.078 184.691 116.98C184.691 115.881 185.581 114.99 186.68 114.99H211.037C212.136 114.99 213.027 115.881 213.027 116.98C213.027 118.078 212.136 118.968 211.037 118.968Z" fill="#C1CAE7"/>
<path fill-rule="evenodd" clip-rule="evenodd" d="M211.037 127.687H186.68C185.581 127.687 184.691 126.797 184.691 125.699C184.691 124.601 185.581 123.709 186.68 123.709H211.037C212.136 123.709 213.027 124.601 213.027 125.699C213.027 126.797 212.136 127.687 211.037 127.687Z" fill="#C1CAE7"/>
<path fill-rule="evenodd" clip-rule="evenodd" d="M85.5184 97.1934C82.4837 97.1934 80.0227 94.7332 80.0227 91.6985V81.6238H59.6813V90.8138H65.0034C68.1763 90.8138 70.7482 93.3857 70.7482 96.5586V160.412H73.7821V124.323C73.7821 120.955 76.5115 118.225 79.8789 118.225H87.8822V97.1934H85.5184Z" fill="#D0DBF0"/>
<path fill-rule="evenodd" clip-rule="evenodd" d="M181.456 71.1189H170.451C169.806 71.1189 169.284 70.5959 169.284 69.9515V64.5305C169.284 63.8861 169.806 63.363 170.451 63.363H181.456C182.101 63.363 182.623 63.8861 182.623 64.5305V69.9515C182.623 70.5959 182.101 71.1189 181.456 71.1189Z" fill="#E0E8F6"/>
<path fill-rule="evenodd" clip-rule="evenodd" d="M178.029 61.1791H173.879V50.3941C173.879 49.9546 174.235 49.5979 174.674 49.5979H177.233C177.673 49.5979 178.029 49.9546 178.029 50.3941V61.1791Z" fill="#E0E8F6"/>
<path fill-rule="evenodd" clip-rule="evenodd" d="M188.321 170.583H66.2851C64.5625 170.583 63.1644 169.186 63.1644 167.462C63.1644 165.739 64.5625 164.341 66.2851 164.341H188.321C190.044 164.341 191.441 165.739 191.441 167.462C191.441 169.186 190.044 170.583 188.321 170.583Z" fill="#7E89A0"/>
<path fill-rule="evenodd" clip-rule="evenodd" d="M262.6 176.131C262.6 167.842 255.881 161.123 247.593 161.123H236.162H228.427H31.6044C29.2374 161.123 27.3187 159.205 27.3187 156.838C27.3187 154.471 29.2374 152.552 31.6044 152.552H32.8666V146.116H24.758C16.4695 146.116 9.75085 152.835 9.75085 161.123C9.75085 169.411 16.4695 176.131 24.758 176.131H232.586H243.307C245.675 176.131 247.593 178.049 247.593 180.416C247.593 182.783 245.675 184.701 243.307 184.701H235.284H214.188C212.41 184.701 210.969 186.142 210.969 187.92C210.969 189.697 212.41 191.138 214.188 191.138H247.77V191.129C255.976 191.033 262.6 184.358 262.6 176.131Z" fill="#919DB6"/>
<path fill-rule="evenodd" clip-rule="evenodd" d="M198.547 184.701H177.785C176.007 184.701 174.567 186.142 174.567 187.92C174.567 189.697 176.007 191.138 177.785 191.138H198.547C200.324 191.138 201.766 189.697 201.766 187.92C201.766 186.142 200.324 184.701 198.547 184.701Z" fill="#919DB6"/>
<path fill-rule="evenodd" clip-rule="evenodd" d="M164.306 231.15H106.92C98.5261 231.15 91.7216 224.346 91.7216 215.952V73.6143C91.7216 65.2205 98.5261 58.4167 106.92 58.4167H164.306C172.7 58.4167 179.504 65.2205 179.504 73.6143V215.952C179.504 224.346 172.7 231.15 164.306 231.15Z" fill="#535565"/>
<path fill-rule="evenodd" clip-rule="evenodd" d="M161.022 226.699H110.204C102.454 226.699 96.1729 220.418 96.1729 212.668V76.8989C96.1729 69.1494 102.454 62.8679 110.204 62.8679H161.022C168.772 62.8679 175.053 69.1494 175.053 76.8989V212.668C175.053 220.418 168.772 226.699 161.022 226.699Z" fill="#FFE3E0"/>
<path fill-rule="evenodd" clip-rule="evenodd" d="M161.022 226.699H110.204C102.454 226.699 96.1729 220.418 96.1729 212.668V76.8989C96.1729 69.1494 102.454 62.8679 110.204 62.8679H161.022C168.772 62.8679 175.053 69.1494 175.053 76.8989V212.668C175.053 220.418 168.772 226.699 161.022 226.699Z" fill="#FDDA38"/>
<path fill-rule="evenodd" clip-rule="evenodd" d="M148.277 69.0354H122.949C119.778 69.0354 117.207 66.4643 117.207 63.2938V60.7444H154.019V63.2938C154.019 66.4643 151.448 69.0354 148.277 69.0354Z" fill="#535565"/>
<path fill-rule="evenodd" clip-rule="evenodd" d="M159.115 203.644H112.111C110.181 203.644 108.617 202.006 108.617 199.987V151.657C108.617 149.637 110.181 148 112.111 148H159.115C161.044 148 162.609 149.637 162.609 151.657V199.987C162.609 202.006 161.044 203.644 159.115 203.644Z" fill="#E5E5E5"/>
<path fill-rule="evenodd" clip-rule="evenodd" d="M157.864 99.3228H113.362C112.284 99.3228 111.41 98.4494 111.41 97.3711C111.41 96.2929 112.284 95.4187 113.362 95.4187H157.864C158.943 95.4187 159.817 96.2929 159.817 97.3711C159.817 98.4494 158.943 99.3228 157.864 99.3228Z" fill="white"/>
<path fill-rule="evenodd" clip-rule="evenodd" d="M148.233 108.377H122.993C121.915 108.377 121.041 107.503 121.041 106.425C121.041 105.347 121.915 104.473 122.993 104.473H148.233C149.311 104.473 150.185 105.347 150.185 106.425C150.185 107.503 149.311 108.377 148.233 108.377Z" fill="white"/>
<path fill-rule="evenodd" clip-rule="evenodd" d="M162.479 207.429H108.747C106.745 207.429 105.122 205.748 105.122 203.673V154.86C105.122 152.785 106.745 151.104 108.747 151.104H162.479C164.481 151.104 166.104 152.785 166.104 154.86V203.673C166.104 205.748 164.481 207.429 162.479 207.429Z" fill="#EEEEEE"/>
<path fill-rule="evenodd" clip-rule="evenodd" d="M165.638 210.215H105.589C103.532 210.215 101.865 208.547 101.865 206.491V157.613C101.865 155.557 103.532 153.889 105.589 153.889H165.638C167.695 153.889 169.362 155.557 169.362 157.613V206.491C169.362 208.547 167.695 210.215 165.638 210.215Z" fill="white"/>
<path fill-rule="evenodd" clip-rule="evenodd" d="M114.707 173.82C110.571 173.82 107.218 170.467 107.218 166.331C107.218 162.195 110.571 158.841 114.707 158.841C118.842 158.841 122.196 162.195 122.196 166.331C122.196 170.467 118.842 173.82 114.707 173.82Z" fill="#EFEFEF"/>
<path fill-rule="evenodd" clip-rule="evenodd" d="M156.579 164.567H127.798C127.113 164.567 126.56 164.013 126.56 163.329C126.56 162.645 127.113 162.092 127.798 162.092H156.579C157.263 162.092 157.816 162.645 157.816 163.329C157.816 164.013 157.263 164.567 156.579 164.567Z" fill="#EFEFEF"/>
<path fill-rule="evenodd" clip-rule="evenodd" d="M101.865 179.106H169.361V178.925H101.865V179.106Z" fill="#E2E2E2"/>
<path fill-rule="evenodd" clip-rule="evenodd" d="M161.714 203.483H110.726C109.344 203.483 108.224 202.362 108.224 200.981V195.274C108.224 193.892 109.344 192.771 110.726 192.771H161.714C163.097 192.771 164.217 193.892 164.217 195.274V200.981C164.217 202.362 163.097 203.483 161.714 203.483Z" fill="#FDDA38"/>
</g>
</svg>
