<svg width="16" height="16" viewBox="0 0 16 16" fill="none" xmlns="http://www.w3.org/2000/svg">
<rect width="16" height="16" transform="matrix(-1 0 0 1 16 0)" fill="#FF0000" fill-opacity="0.01"/>
<path d="M9.26858 8.00003L5.03427 3.56408C4.72185 3.23678 4.72185 2.70613 5.03427 2.37883C5.34669 2.05154 5.85322 2.05154 6.16564 2.37883L10.9656 7.40741C11.2781 7.7347 11.2781 8.26536 10.9656 8.59265L6.16564 13.6212C5.85322 13.9485 5.34669 13.9485 5.03427 13.6212C4.72185 13.2939 4.72185 12.7633 5.03427 12.436L9.26858 8.00003Z" fill="#4A4A4A"/>
<mask id="mask0_1_5369" style="mask-type:luminance" maskUnits="userSpaceOnUse" x="4" y="2" width="8" height="12">
<path d="M9.26858 8.00003L5.03427 3.56408C4.72185 3.23678 4.72185 2.70613 5.03427 2.37883C5.34669 2.05154 5.85322 2.05154 6.16564 2.37883L10.9656 7.40741C11.2781 7.7347 11.2781 8.26536 10.9656 8.59265L6.16564 13.6212C5.85322 13.9485 5.34669 13.9485 5.03427 13.6212C4.72185 13.2939 4.72185 12.7633 5.03427 12.436L9.26858 8.00003Z" fill="white"/>
</mask>
<g mask="url(#mask0_1_5369)">
<rect width="16" height="16" transform="matrix(-1 0 0 1 16 0)" fill="#C1C0C9"/>
</g>
</svg>
