<svg width="61" height="29" viewBox="0 0 61 29" fill="none" xmlns="http://www.w3.org/2000/svg">
<path d="M0.52049 21.868C0.534427 23.1158 2.25915 23.0751 2.33643 23.0728C2.25243 22.6225 2.20776 22.1555 2.20776 21.6769C2.20776 17.796 5.11104 14.6364 8.67958 14.6364C12.2479 14.6364 15.1514 17.796 15.1514 21.6769C15.1514 22.4907 15.0173 23.2681 14.7832 23.9956C21.985 23.4806 44.6596 23.6646 45.6181 23.7806C45.7393 23.7952 45.9887 23.7921 46.3327 23.7759C46.229 23.2703 46.1677 22.7472 46.1677 22.2086C46.1677 18.2897 49.0985 15.1014 52.702 15.1014C56.2724 15.1014 59.1812 18.2381 59.2301 22.1099L60.3517 21.5949C60.6001 21.4821 60.5636 21.4719 60.3242 21.3368C60.0465 21.18 59.878 20.6982 60.599 19.3078C61.5081 17.5517 60.6618 16.2796 60.1203 15.7057C59.9263 15.5023 59.7488 15.1284 59.7443 14.836C59.683 10.5694 58.191 9.09896 57.4229 8.6234C57.1886 8.47909 57.1922 8.37499 57.4584 8.32504C60.9616 7.66618 58.5899 7.70544 58.2787 6.68649C57.9537 5.62369 55.8367 6.77462 54.7377 7.08489C54.3321 7.19969 53.056 7.4462 51.6079 7.71289C51.6742 7.63342 51.7157 7.55044 51.6946 7.46218C51.6363 7.21675 51.5676 7.02222 51.5016 6.87114C51.3864 6.6054 51.1242 6.21689 50.9168 6.02831C50.6603 5.79371 50.2425 5.56101 49.644 5.66917C49.445 5.70559 49.275 5.82661 49.1298 6.00191C49.0994 5.9498 49.0691 5.89646 49.0411 5.8549C48.7952 5.48872 48.3534 5.06365 47.6907 5.23327C46.9241 5.42997 46.5915 7.41737 46.4569 8.62137C46.1992 8.65548 45.878 8.67999 45.6596 8.67999H41.5076C42.3593 7.50035 41.3694 6.77232 40.5815 6.71479C40.3707 6.69868 40.0634 6.83825 39.7273 7.04536C39.5289 6.68108 39.1733 6.4611 38.8526 6.42888C38.328 6.37784 37.1147 7.80413 36.5373 8.52471C36.4994 8.5725 36.4755 8.62597 36.4581 8.67877H25.7148V7.1852C25.7148 6.67201 25.3317 6.25533 24.86 6.25533C24.3882 6.25533 24.0052 6.67201 24.0052 7.1852V8.67877H22.0925C21.8229 8.67877 21.7651 8.51578 21.9613 8.31556C23.2001 7.04929 27.2248 2.8847 27.0179 2.43526C26.877 2.13013 27.0461 1.6497 27.2154 1.29583C27.3393 1.03605 27.3168 0.663915 27.0922 0.500791C26.7111 0.223955 26.0409 -0.101615 25.0949 0.0302373C24.8274 0.0676 24.4058 0.19837 24.1634 0.326973C22.1128 1.41929 17.0661 6.15286 15.6625 7.48546C15.4593 7.67891 15.077 7.85435 14.8077 7.87872C2.8536 8.97239 1.16832 13.2071 0.950426 14.7061C0.908491 14.9958 0.743484 15.3744 0.574372 15.6028C-0.446898 16.9882 0.143316 19.7149 0.450431 20.8401C0.52721 21.1221 0.517752 21.5745 0.52049 21.868Z" fill="#242E42"/>
<path d="M41.894 5.9392C41.894 4.74575 41.306 3.77744 40.5814 3.77744C40.1406 3.77744 39.7531 4.1382 39.5148 4.6866C39.3268 4.33585 39.055 4.10964 38.7499 4.10964C38.1848 4.10964 37.727 4.86393 37.727 5.79381C37.727 6.72395 38.1848 6.40054 38.7499 6.40054C38.9694 6.40054 39.1702 6.44725 39.3374 6.45239C39.5078 6.97236 39.9976 6.71718 40.5815 6.71718C41.307 6.71718 41.894 7.13277 41.894 5.9392Z" fill="#242E42"/>
<path d="M47.8124 4.89575C48.0318 4.89575 48.2332 4.94246 48.4004 4.9476C48.5698 5.46757 49.0596 5.21117 49.644 5.21117C50.3681 5.21117 50.9571 5.62677 50.9571 4.43319C50.9571 3.23961 50.3682 2.2717 49.644 2.2717C49.2037 2.2717 48.8152 2.63219 48.5769 3.18059C48.3899 2.82984 48.118 2.60363 47.8124 2.60363C47.2479 2.60363 46.789 3.3582 46.789 4.28807C46.789 5.22024 47.2468 4.89575 47.8124 4.89575Z" fill="#242E42"/>
<path d="M8.67955 27.6559C10.9234 27.6559 12.8497 26.1907 13.7038 24.0943C14.0047 23.3543 14.1745 22.5397 14.1745 21.678C14.1745 18.3768 11.7147 15.7003 8.67955 15.7003C5.64436 15.7003 3.18433 18.3768 3.18433 21.678C3.18433 22.1223 3.23224 22.5531 3.31598 22.9692C3.85966 25.6492 6.05289 27.6559 8.67955 27.6559Z" fill="#242E42"/>
<path d="M52.702 16.1653C49.6331 16.1653 47.1447 18.8708 47.1447 22.2097C47.1447 22.7285 47.2115 23.2285 47.3252 23.7092C47.9386 26.3203 50.1098 28.2537 52.702 28.2537C55.6726 28.2537 58.0917 25.7142 58.2437 22.5227C58.2482 22.4181 58.2577 22.3156 58.2577 22.2086C58.2567 18.8709 55.7698 16.1653 52.702 16.1653Z" fill="#242E42"/>
</svg>
