<svg width="280" height="44" viewBox="0 0 280 44" fill="none" xmlns="http://www.w3.org/2000/svg">
<path d="M43.8662 16.5967C43.5413 15.5555 42.6795 14.7961 41.6442 14.6379L29.7775 12.8373L24.4692 1.60502C24.0039 0.621298 23.0485 0 21.9995 0C20.9504 0 19.9951 0.621298 19.5297 1.60502L14.2241 12.8373L2.35742 14.6379C1.31943 14.7961 0.457645 15.5555 0.135509 16.5967C-0.18938 17.638 0.0804433 18.7799 0.832094 19.545L9.41963 28.2892L7.39321 40.6375C7.21699 41.7162 7.641 42.8063 8.48902 43.4506C8.96534 43.8159 9.53252 44 10.1052 44C10.543 44 10.9835 43.8907 11.3855 43.6692L21.9995 37.8388L32.6134 43.6692C33.0154 43.8907 33.4559 44 33.8937 44C34.4636 44 35.0336 43.8159 35.5126 43.4506C36.3607 42.8063 36.7847 41.7162 36.6085 40.6375L34.582 28.2892L43.1696 19.545C43.9185 18.7828 44.1883 17.638 43.8662 16.5967Z" fill="#FFCC00"/>
<path d="M102.866 16.5967C102.541 15.5555 101.679 14.7961 100.644 14.6379L88.7775 12.8373L83.4692 1.60502C83.0039 0.621298 82.0485 0 80.9995 0C79.9504 0 78.9951 0.621298 78.5297 1.60502L73.2241 12.8373L61.3574 14.6379C60.3194 14.7961 59.4576 15.5555 59.1355 16.5967C58.8106 17.638 59.0804 18.7799 59.8321 19.545L68.4196 28.2892L66.3932 40.6375C66.217 41.7162 66.641 42.8063 67.489 43.4506C67.9653 43.8159 68.5325 44 69.1052 44C69.543 44 69.9835 43.8907 70.3855 43.6692L80.9995 37.8388L91.6134 43.6692C92.0154 43.8907 92.4559 44 92.8937 44C93.4636 44 94.0336 43.8159 94.5126 43.4506C95.3607 42.8063 95.7847 41.7162 95.6085 40.6375L93.582 28.2892L102.17 19.545C102.918 18.7828 103.188 17.638 102.866 16.5967Z" fill="#FFCC00"/>
<path d="M161.866 16.5967C161.541 15.5555 160.679 14.7961 159.644 14.6379L147.778 12.8373L142.469 1.60502C142.004 0.621298 141.048 0 139.999 0C138.95 0 137.995 0.621298 137.53 1.60502L132.224 12.8373L120.357 14.6379C119.319 14.7961 118.458 15.5555 118.136 16.5967C117.811 17.638 118.08 18.7799 118.832 19.545L127.42 28.2892L125.393 40.6375C125.217 41.7162 125.641 42.8063 126.489 43.4506C126.965 43.8159 127.533 44 128.105 44C128.543 44 128.984 43.8907 129.385 43.6692L139.999 37.8388L150.613 43.6692C151.015 43.8907 151.456 44 151.894 44C152.464 44 153.034 43.8159 153.513 43.4506C154.361 42.8063 154.785 41.7162 154.608 40.6375L152.582 28.2892L161.17 19.545C161.918 18.7828 162.188 17.638 161.866 16.5967Z" fill="#FFCC00"/>
<path d="M220.866 16.5967C220.541 15.5555 219.679 14.7961 218.644 14.6379L206.778 12.8373L201.469 1.60502C201.004 0.621298 200.048 0 198.999 0C197.95 0 196.995 0.621298 196.53 1.60502L191.224 12.8373L179.357 14.6379C178.319 14.7961 177.458 15.5555 177.136 16.5967C176.811 17.638 177.08 18.7799 177.832 19.545L186.42 28.2892L184.393 40.6375C184.217 41.7162 184.641 42.8063 185.489 43.4506C185.965 43.8159 186.533 44 187.105 44C187.543 44 187.984 43.8907 188.385 43.6692L198.999 37.8388L209.613 43.6692C210.015 43.8907 210.456 44 210.894 44C211.464 44 212.034 43.8159 212.513 43.4506C213.361 42.8063 213.785 41.7162 213.608 40.6375L211.582 28.2892L220.17 19.545C220.918 18.7828 221.188 17.638 220.866 16.5967Z" fill="#FFCC00"/>
<path d="M279.866 16.5967C279.541 15.5555 278.679 14.7961 277.644 14.6379L265.778 12.8373L260.469 1.60502C260.004 0.621298 259.048 0 257.999 0C256.95 0 255.995 0.621298 255.53 1.60502L250.224 12.8373L238.357 14.6379C237.319 14.7961 236.458 15.5555 236.136 16.5967C235.811 17.638 236.08 18.7799 236.832 19.545L245.42 28.2892L243.393 40.6375C243.217 41.7162 243.641 42.8063 244.489 43.4506C244.965 43.8159 245.533 44 246.105 44C246.543 44 246.984 43.8907 247.385 43.6692L257.999 37.8388L268.613 43.6692C269.015 43.8907 269.456 44 269.894 44C270.464 44 271.034 43.8159 271.513 43.4506C272.361 42.8063 272.785 41.7162 272.608 40.6375L270.582 28.2892L279.17 19.545C279.918 18.7828 280.188 17.638 279.866 16.5967Z" fill="#EFEFF4"/>
</svg>
