<svg width="19" height="25" viewBox="0 0 19 25" fill="none" xmlns="http://www.w3.org/2000/svg">
<path fill-rule="evenodd" clip-rule="evenodd" d="M9.49998 24.7092C10.4639 24.7092 15.0541 18.9448 16.1859 17.1085C17.9258 14.2859 19 12.616 19 9.49998C19 4.25329 14.7467 0 9.49998 0C4.25329 0 0 4.25329 0 9.49998C0 12.6323 0.995334 14.291 2.72939 17.1085C3.93799 19.0723 8.53607 24.7092 9.49998 24.7092ZM9.49998 14.25C12.1233 14.25 14.25 12.1233 14.25 9.49998C14.25 6.87663 12.1233 4.74999 9.49998 4.74999C6.87663 4.74999 4.74999 6.87663 4.74999 9.49998C4.74999 12.1233 6.87663 14.25 9.49998 14.25Z" fill="#F52D56"/>
</svg>
