<svg width="28" height="27" viewBox="0 0 28 27" fill="none" xmlns="http://www.w3.org/2000/svg">
<path d="M25.9 18.3995C27.0598 18.3995 28 17.4593 28 16.2995C28 15.1397 27.0598 14.1995 25.9 14.1995C24.7402 14.1995 23.8 15.1397 23.8 16.2995C23.8 17.4593 24.7402 18.3995 25.9 18.3995Z" fill="#C8C7CC"/>
<path d="M6.34872 2.86911L22.1746 0.0162712C22.7249 -0.0829339 23.2522 0.280261 23.3558 0.829794L23.74 2.8691L6.34872 2.86911Z" fill="#C8C7CC"/>
<path d="M28 11.871C27.3635 11.5687 26.6515 11.3995 25.9 11.3995C23.1938 11.3995 21 13.5933 21 16.2995C21 19.0057 23.1938 21.1995 25.9 21.1995C26.6515 21.1995 27.3635 21.0303 28 20.7279V23.9995C28 25.5459 26.7464 26.7995 25.2 26.7995H2.8C1.2536 26.7995 0 25.5459 0 23.9995V7.19949C0 5.65309 1.2536 4.39949 2.8 4.39949H25.2C26.7464 4.39949 28 5.65309 28 7.19949V11.871Z" fill="#C8C7CC"/>
</svg>
