<svg width="28" height="28" viewBox="0 0 28 28" fill="none" xmlns="http://www.w3.org/2000/svg">
<rect width="28" height="28" fill="#FF0000" fill-opacity="0.01"/>
<path d="M11.9213 8.07444C11.636 4.79359 8.21331 3.18378 8.06845 3.11807C7.93256 3.05386 7.78024 3.03444 7.63389 3.05983C3.68253 3.7154 3.08819 6.01514 3.06429 6.11071C3.03144 6.24511 3.03741 6.38399 3.07923 6.51391C7.79219 21.1366 17.587 23.847 20.8066 24.7386C21.0545 24.8072 21.2591 24.8625 21.4144 24.9133C21.489 24.9387 21.5667 24.9491 21.6443 24.9491C21.7504 24.9491 21.8564 24.9267 21.9535 24.8819C22.052 24.8371 24.3786 23.741 24.9476 20.166C24.973 20.0107 24.9476 19.8494 24.8759 19.709C24.8251 19.6104 23.6081 17.2943 20.2331 16.4759C19.9972 16.4147 19.7553 16.4774 19.5731 16.6327C18.5083 17.5422 17.0374 18.5114 16.4027 18.6114C12.1482 16.5312 9.77235 12.5395 9.68275 11.7824C9.63048 11.3568 10.6056 9.86196 11.7271 8.64639C11.869 8.49258 11.9407 8.28351 11.9213 8.07444Z" fill="black"/>
<mask id="mask0_7_1364" style="mask-type:luminance" maskUnits="userSpaceOnUse" x="3" y="3" width="22" height="22">
<path d="M11.9213 8.07444C11.636 4.79359 8.21331 3.18378 8.06845 3.11807C7.93256 3.05386 7.78024 3.03444 7.63389 3.05983C3.68253 3.7154 3.08819 6.01514 3.06429 6.11071C3.03144 6.24511 3.03741 6.38399 3.07923 6.51391C7.79219 21.1366 17.587 23.847 20.8066 24.7386C21.0545 24.8072 21.2591 24.8625 21.4144 24.9133C21.489 24.9387 21.5667 24.9491 21.6443 24.9491C21.7504 24.9491 21.8564 24.9267 21.9535 24.8819C22.052 24.8371 24.3786 23.741 24.9476 20.166C24.973 20.0107 24.9476 19.8494 24.8759 19.709C24.8251 19.6104 23.6081 17.2943 20.2331 16.4759C19.9972 16.4147 19.7553 16.4774 19.5731 16.6327C18.5083 17.5422 17.0374 18.5114 16.4027 18.6114C12.1482 16.5312 9.77235 12.5395 9.68275 11.7824C9.63048 11.3568 10.6056 9.86196 11.7271 8.64639C11.869 8.49258 11.9407 8.28351 11.9213 8.07444Z" fill="white"/>
</mask>
<g mask="url(#mask0_7_1364)">
<rect width="28" height="28" fill="white"/>
</g>
</svg>
