<svg width="24" height="24" viewBox="0 0 24 24" fill="none" xmlns="http://www.w3.org/2000/svg">
<rect width="24" height="24" fill="#FF0000" fill-opacity="0.01"/>
<path d="M13.5616 12L19.6768 5.8848C20.1077 5.45387 20.1077 4.75413 19.6768 4.3232C19.2459 3.89227 18.5461 3.89227 18.1152 4.3232L12 10.4384L5.8848 4.3232C5.45387 3.89227 4.75413 3.89227 4.3232 4.3232C3.89227 4.75413 3.89227 5.45387 4.3232 5.8848L10.4384 12L4.3232 18.1152C3.89227 18.5461 3.89227 19.2459 4.3232 19.6768C4.75413 20.1077 5.45387 20.1077 5.8848 19.6768L12 13.5616L18.1152 19.6768C18.5461 20.1077 19.2459 20.1077 19.6768 19.6768C20.1077 19.2459 20.1077 18.5461 19.6768 18.1152L13.5616 12Z" fill="black"/>
<mask id="mask0_1_6125" style="mask-type:luminance" maskUnits="userSpaceOnUse" x="4" y="4" width="16" height="16">
<path d="M13.5616 12L19.6768 5.8848C20.1077 5.45387 20.1077 4.75413 19.6768 4.3232C19.2459 3.89227 18.5461 3.89227 18.1152 4.3232L12 10.4384L5.8848 4.3232C5.45387 3.89227 4.75413 3.89227 4.3232 4.3232C3.89227 4.75413 3.89227 5.45387 4.3232 5.8848L10.4384 12L4.3232 18.1152C3.89227 18.5461 3.89227 19.2459 4.3232 19.6768C4.75413 20.1077 5.45387 20.1077 5.8848 19.6768L12 13.5616L18.1152 19.6768C18.5461 20.1077 19.2459 20.1077 19.6768 19.6768C20.1077 19.2459 20.1077 18.5461 19.6768 18.1152L13.5616 12Z" fill="white"/>
</mask>
<g mask="url(#mask0_1_6125)">
<rect width="24" height="24" fill="#4A4A4A"/>
</g>
</svg>
