<svg width="23" height="4" viewBox="0 0 23 4" fill="none" xmlns="http://www.w3.org/2000/svg">
<path fill-rule="evenodd" clip-rule="evenodd" d="M3.83197 1.78722C3.91324 1.70512 3.94144 1.58569 3.90661 1.47456C3.87177 1.3626 3.78055 1.28381 3.67108 1.26723L2.70075 1.1196C2.68168 1.11712 2.66509 1.10468 2.6568 1.08643L2.22305 0.170014C2.17329 0.0646883 2.07294 0 1.96015 0C1.84819 0 1.74784 0.0646883 1.69891 0.170014L1.26434 1.08643C1.25688 1.10468 1.23946 1.11712 1.22122 1.1196L0.250892 1.26723C0.139761 1.28464 0.049363 1.36343 0.0145308 1.47456C-0.0203013 1.58652 0.00872546 1.70595 0.0883418 1.78722L0.79079 2.50128C0.804889 2.51538 0.810694 2.53528 0.808206 2.55519L0.641509 3.56366C0.622435 3.67811 0.668048 3.79256 0.757616 3.86139C0.848014 3.93023 0.966609 3.93935 1.0653 3.88461L1.93362 3.4094C1.9502 3.39945 1.97094 3.39945 1.98752 3.4094L2.85501 3.88461C2.89813 3.90866 2.94541 3.91944 2.99102 3.91944C3.05239 3.91944 3.1121 3.90037 3.16269 3.86139C3.25392 3.79256 3.29787 3.67811 3.27963 3.56366L3.11376 2.55519C3.11044 2.53528 3.11708 2.51538 3.13035 2.50045L3.83197 1.78722Z" fill="#FFD400"/>
<path fill-rule="evenodd" clip-rule="evenodd" d="M8.48 1.78722C8.56127 1.70512 8.58947 1.58569 8.55464 1.47456C8.51981 1.3626 8.42858 1.28381 8.31911 1.26723L7.34878 1.1196C7.32971 1.11712 7.31312 1.10468 7.30483 1.08643L6.87109 0.170014C6.82133 0.0646883 6.72098 0 6.60819 0C6.49623 0 6.39588 0.0646883 6.34694 0.170014L5.91237 1.08643C5.90408 1.10468 5.88749 1.11712 5.86925 1.1196L4.89892 1.26723C4.78779 1.28464 4.69739 1.36343 4.66256 1.47456C4.62773 1.58652 4.65676 1.70595 4.73637 1.78722L5.43882 2.50128C5.45292 2.51538 5.45873 2.53528 5.45624 2.55519L5.28954 3.56366C5.27047 3.67811 5.31608 3.79256 5.40565 3.86139C5.49605 3.93023 5.61464 3.93935 5.71333 3.88461L6.58165 3.4094C6.59823 3.39945 6.61897 3.39945 6.63555 3.4094L7.50304 3.88461C7.54617 3.90866 7.59344 3.91944 7.63905 3.91944C7.70042 3.91944 7.76013 3.90037 7.81072 3.86139C7.90195 3.79256 7.94591 3.67811 7.92766 3.56366L7.76179 2.55519C7.75848 2.53528 7.76511 2.51538 7.77838 2.50045L8.48 1.78722Z" fill="#FFD400"/>
<path fill-rule="evenodd" clip-rule="evenodd" d="M13.4763 1.78722C13.5576 1.70512 13.5858 1.58569 13.5509 1.47456C13.5161 1.3626 13.4249 1.28381 13.3154 1.26723L12.3451 1.1196C12.326 1.11712 12.3094 1.10468 12.3011 1.08643L11.8674 0.170014C11.8176 0.0646883 11.7173 0 11.6045 0C11.4925 0 11.3922 0.0646883 11.3432 0.170014L10.9087 1.08643C10.9012 1.10468 10.8838 1.11712 10.8655 1.1196L9.89522 1.26723C9.78409 1.28464 9.69369 1.36343 9.65886 1.47456C9.62403 1.58652 9.65305 1.70595 9.73267 1.78722L10.4351 2.50128C10.4492 2.51538 10.455 2.53528 10.4525 2.55519L10.2858 3.56366C10.2668 3.67811 10.3124 3.79256 10.4019 3.86139C10.4923 3.93023 10.6109 3.93935 10.7096 3.88461L11.5779 3.4094C11.5945 3.39945 11.6153 3.39945 11.6319 3.4094L12.4993 3.88461C12.5425 3.90866 12.5897 3.91944 12.6353 3.91944C12.6967 3.91944 12.7564 3.90037 12.807 3.86139C12.8982 3.79256 12.9422 3.67811 12.924 3.56366L12.7581 2.55519C12.7548 2.53528 12.7614 2.51538 12.7747 2.50045L13.4763 1.78722Z" fill="#FFD400"/>
<path fill-rule="evenodd" clip-rule="evenodd" d="M18.1243 1.78722C18.2047 1.70512 18.2329 1.58569 18.1981 1.47456C18.1641 1.3626 18.0728 1.28381 17.9625 1.26723L16.993 1.1196C16.9731 1.11712 16.9574 1.10468 16.9483 1.08643L16.5153 0.170014C16.4648 0.0646883 16.3644 0 16.2524 0C16.1397 0 16.0393 0.0646883 15.9904 0.170014L15.5566 1.08643C15.5483 1.10468 15.5318 1.11712 15.5127 1.1196L14.5432 1.26723C14.4321 1.28464 14.3408 1.36343 14.306 1.47456C14.272 1.58652 14.301 1.70595 14.3806 1.78722L15.0823 2.50128C15.0964 2.51538 15.1022 2.53528 15.0997 2.55519L14.933 3.56366C14.9147 3.67811 14.9595 3.79256 15.0499 3.86139C15.1403 3.93023 15.2589 3.93935 15.3576 3.88461L16.2251 3.4094C16.2417 3.39945 16.2624 3.39945 16.279 3.4094L17.1465 3.88461C17.1904 3.90866 17.2369 3.91944 17.2833 3.91944C17.3439 3.91944 17.4036 3.90037 17.455 3.86139C17.5462 3.79256 17.5902 3.67811 17.5711 3.56366L17.4061 2.55519C17.4027 2.53528 17.4085 2.51538 17.4218 2.50045L18.1243 1.78722Z" fill="#FFD400"/>
<path fill-rule="evenodd" clip-rule="evenodd" d="M22.9115 1.78722C22.992 1.70512 23.0202 1.58569 22.9853 1.47456C22.9505 1.3626 22.8601 1.28381 22.7498 1.26723L21.7795 1.1196C21.7604 1.11712 21.7447 1.10468 21.7355 1.08643L21.3026 0.170014C21.252 0.0646883 21.1517 0 21.0397 0C20.9269 0 20.8266 0.0646883 20.7777 0.170014L20.3431 1.08643C20.3356 1.10468 20.3182 1.11712 20.3 1.1196L19.3305 1.26723C19.2193 1.28464 19.1281 1.36343 19.0933 1.47456C19.0593 1.58652 19.0875 1.70595 19.1679 1.78722L19.8695 2.50128C19.8836 2.51538 19.8894 2.53528 19.8869 2.55519L19.7202 3.56366C19.702 3.67811 19.7468 3.79256 19.8372 3.86139C19.9276 3.93023 20.0453 3.93935 20.1449 3.88461L21.0124 3.4094C21.0289 3.39945 21.0497 3.39945 21.0663 3.4094L21.9337 3.88461C21.9777 3.90866 22.0241 3.91944 22.0706 3.91944C22.1311 3.91944 22.1908 3.90037 22.2423 3.86139C22.3327 3.79256 22.3774 3.67811 22.3584 3.56366L22.1933 2.55519C22.19 2.53528 22.1958 2.51538 22.2091 2.50045L22.9115 1.78722Z" fill="#FFD400"/>
</svg>
