<svg width="50" height="27" viewBox="0 0 50 27" fill="none" xmlns="http://www.w3.org/2000/svg">
<path fill-rule="evenodd" clip-rule="evenodd" d="M35.2918 0.308358C35.1027 0.11136 34.8434 0 34.5703 0H28.0997L24.1633 3.53384C17.6545 4.992 12.9847 9.28127 12.7515 9.50004L12.5477 9.68946C12.1863 9.86413 11.0451 10.2817 7.55688 10.9674C2.6093 11.9416 1.6655 13.5178 1.48722 14.1273C1.09227 14.4222 0.452627 15.1253 0.35129 15.9526C0.269829 16.6123 0.0853757 16.8821 0.0853757 16.8813L0 16.9914V21.6478L0.00963676 21.7327C0.27781 22.9692 1.55935 23.6235 3.71557 23.6235C4.40325 23.6235 4.91911 23.5533 4.89909 23.5533C4.91723 23.5523 5.02182 23.5502 5.20375 23.5467C5.32237 23.5444 5.47387 23.5414 5.65572 23.5376C5.60859 23.4074 5.56568 23.2756 5.52864 23.1407C5.4928 23.0106 5.45998 22.8796 5.43468 22.7455C5.37385 22.4296 5.33967 22.1045 5.33967 21.7708C5.33967 18.9093 7.6677 16.5811 10.5292 16.5811C13.3907 16.5811 15.7189 18.9093 15.7189 21.7708C15.7189 22.0296 15.6936 22.2806 15.6573 22.5294C15.6375 22.6643 15.6144 22.7983 15.584 22.9293C15.5528 23.065 15.5202 23.1991 15.4787 23.3309C21.9592 23.1921 30.2052 23.0088 36.5917 22.8483C36.5635 22.7173 36.5456 22.5847 36.5277 22.4505C36.5098 22.318 36.4995 22.1855 36.4926 22.0515C36.4911 22.0204 36.489 21.9895 36.4869 21.9586L36.4869 21.9581C36.4827 21.8961 36.4786 21.8342 36.4786 21.7708C36.4786 18.9093 38.8068 16.5811 41.6681 16.5811C44.4892 16.5811 46.7877 18.8453 46.8517 21.6523C46.8517 21.6717 46.8532 21.6912 46.8547 21.7108V21.7109C46.8563 21.7307 46.8578 21.7507 46.8578 21.7708C46.8578 21.8465 46.8526 21.9208 46.8473 21.9954L46.8472 21.9958C46.8465 22.0064 46.8457 22.017 46.845 22.0276C46.844 22.0415 46.8431 22.0554 46.8422 22.0694C46.8344 22.2112 46.8203 22.3523 46.8017 22.4911C48.021 22.29 48.938 21.6475 49.469 20.6082C50.3772 18.8313 49.9142 16.4253 49.5882 15.9144C49.4132 15.6396 49.3259 14.5703 49.2484 13.6214V13.6214L49.2484 13.6213L49.247 13.6041L49.2454 13.5848C49.1756 12.7432 49.0969 11.7936 48.9444 10.9734C48.8376 10.3954 48.6028 9.62562 47.8092 9.62562C47.7297 9.62562 47.65 9.63345 47.5714 9.64158L47.5432 9.64441C47.5025 9.64858 47.4579 9.65316 47.3928 9.65438C47.3912 9.65438 47.3654 9.62938 47.3328 9.53437C47.0997 8.86687 46.122 8.03661 44.8683 7.02113C44.5595 6.77193 44.1898 6.47184 44.0323 6.31705C44.0901 5.91712 44.0816 5.42595 43.8031 5.08746C43.6738 4.9295 43.4305 4.74083 43.011 4.74083C42.9494 4.74083 42.8839 4.7446 42.7381 4.75755C42.4355 4.75755 41.829 4.63317 40.9892 4.45956L40.9837 4.45844C40.4129 4.3413 39.7129 4.19764 38.8809 4.04718L35.2918 0.308358ZM19.7198 10.3064L19.7198 10.3064C19.7471 10.3015 19.7743 10.2967 19.8048 10.2955C21.281 10.2404 21.5317 11.5761 21.5317 11.5761L28.758 11.2808V5.4303C27.0532 5.52306 25.6814 5.6785 24.9292 5.92168C23.2766 6.45669 21.3547 7.5242 19.6589 8.59923V10.3156C19.68 10.3135 19.6999 10.3099 19.7198 10.3064L19.7198 10.3064ZM38.9939 9.76501C38.7416 10.2032 38.2824 10.4815 37.7774 10.5026L31.8347 10.7453L31.3022 5.43331C33.7581 5.50802 35.8099 5.60028 36.8493 5.65644C37.3302 5.68201 37.7639 5.95929 37.988 6.38549L39.0194 8.3425C39.2556 8.79027 39.2456 9.32778 38.9939 9.76501Z" fill="#242E42"/>
<path d="M6.50148 23.5189C7.17786 25.0736 8.72516 26.1612 10.5286 26.1612C12.3968 26.1612 13.988 24.9924 14.6227 23.3489C14.673 23.2179 14.7179 23.0838 14.7561 22.9466C14.7927 22.8156 14.8231 22.6814 14.8481 22.5458C14.8925 22.294 14.9205 22.035 14.9205 21.7701C14.9205 19.3445 12.9549 17.3788 10.5293 17.3788C8.10374 17.3788 6.13814 19.3445 6.13814 21.7701C6.13814 22.0992 6.17714 22.4194 6.2461 22.7283C6.27532 22.8624 6.3104 22.9942 6.35286 23.1228C6.39623 23.2586 6.44577 23.3894 6.50148 23.5189Z" fill="#242E42"/>
<path d="M37.4081 22.8266C37.8821 24.74 39.6069 26.1612 41.6668 26.1612C43.8203 26.1612 45.6082 24.609 45.9824 22.5637C46.0065 22.4312 46.0251 22.2978 46.0384 22.1614C46.0501 22.032 46.058 21.9025 46.058 21.77C46.058 21.7669 46.058 21.7637 46.058 21.7598C46.0533 19.3398 44.0884 17.3787 41.6668 17.3787C39.2419 17.3787 37.2756 19.3444 37.2756 21.77C37.2756 21.8581 37.2841 21.9438 37.2888 22.0311C37.2966 22.166 37.3099 22.2984 37.3301 22.4295C37.3504 22.5639 37.3769 22.6964 37.4081 22.8266Z" fill="#242E42"/>
</svg>
