<svg width="50" height="19" viewBox="0 0 50 19" fill="none" xmlns="http://www.w3.org/2000/svg">
<path d="M7.03132 11.8364C5.19695 11.8541 3.72472 13.3545 3.74186 15.1884C3.74338 15.3301 3.75649 15.4688 3.77515 15.605C3.99606 17.2407 5.40223 18.494 7.09436 18.4774C8.83391 18.4617 10.2446 17.1121 10.3727 15.4083C10.3798 15.315 10.3853 15.2207 10.3843 15.1249C10.3672 13.2915 8.86568 11.8193 7.03132 11.8364Z" fill="black"/>
<path d="M39.1719 11.8364C37.3375 11.8541 35.8648 13.3545 35.8829 15.1884C35.8839 15.3301 35.8971 15.4688 35.9157 15.605C36.1366 17.2407 37.5428 18.494 39.2349 18.4774C40.9745 18.4617 42.3852 17.1121 42.5133 15.4083C42.5203 15.315 42.5259 15.2207 42.5249 15.1249C42.5072 13.2915 41.0063 11.8193 39.1719 11.8364Z" fill="black"/>
<path fill-rule="evenodd" clip-rule="evenodd" d="M48.4536 12.5758L49.5995 13.0786C49.8421 13.185 49.9995 13.4256 50 13.6924V14.1963C50 14.565 49.7009 14.8646 49.3322 14.8646H47.5226V15.5056C47.5226 15.6423 47.4111 15.7538 47.2744 15.7538H46.7131C46.5759 15.7538 46.4644 15.6423 46.4644 15.5056V14.9069L43.2763 15.4335C43.2763 15.4335 43.2895 15.2252 43.2879 15.1198C43.2678 12.889 41.4359 11.0748 39.1653 11.0748C36.9133 11.0965 35.0991 12.946 35.1203 15.1975C35.1208 15.2378 35.1294 15.3114 35.1294 15.3114L11.1333 15.4678C11.1333 15.4678 11.1479 15.2373 11.1469 15.1208C11.1262 12.89 9.2944 11.0758 7.02375 11.0758C4.77228 11.0975 2.95809 12.947 2.97927 15.1985C2.97996 15.2557 2.98553 15.311 2.99108 15.3662C2.99371 15.3923 2.99633 15.4184 2.99844 15.4446C1.71937 15.4093 0.925001 15.3604 0.826146 15.2882C0.151309 14.8 0 14.0167 0 14.0167V12.6696C0 12.4633 0.134665 12.2812 0.331871 12.2227L0.825642 12.0739C0.825642 12.0739 0.810007 9.65551 0.804459 8.84954C0.79891 7.94018 1.40818 7.25979 2.70338 7.01366C4.18924 6.73122 8.65688 5.94189 8.65688 5.94189C8.65688 5.94189 12.5697 2.51878 14.0869 1.29217C14.4465 1.00166 14.8767 0.807479 15.3321 0.72779C20.6002 -0.189142 42.4815 -0.31725 46.2425 0.792853C46.4866 0.864976 46.6894 1.03646 46.8023 1.26494C49.4523 6.63388 48.4536 12.5758 48.4536 12.5758ZM18.6957 6.44827C18.8521 6.44827 18.9812 6.32672 18.9908 6.17087L19.2636 1.8505C19.2682 1.76779 19.2389 1.68658 19.1814 1.62707C19.1239 1.56755 19.0442 1.53427 18.9615 1.53578L15.7765 1.60235C15.4501 1.60891 15.1369 1.735 14.8964 1.95591L12.8754 3.816C12.8754 3.816 13.1144 4.0354 13.1613 4.6129C13.1911 4.98058 13.185 6.44827 13.185 6.44827H18.6957Z" fill="black"/>
</svg>
