<svg width="23" height="23" viewBox="0 0 23 23" fill="none" xmlns="http://www.w3.org/2000/svg">
<rect width="23" height="23" fill="#FF0000" fill-opacity="0.01"/>
<path d="M18.0115 7.21719L11.5 13.4868L4.98846 7.21719C4.54925 6.7943 3.83526 6.7943 3.39606 7.21719C2.95685 7.64008 2.95685 8.32754 3.39606 8.75043L10.7004 15.7834C10.9211 15.9959 11.2117 16.1022 11.5 16.1C11.7905 16.1 12.0788 15.9959 12.2996 15.7834L19.6039 8.75043C20.0431 8.32754 20.0431 7.64008 19.6039 7.21719C19.1647 6.7943 18.4507 6.7943 18.0115 7.21719Z" fill="black"/>
<mask id="mask0_1_5390" style="mask-type:luminance" maskUnits="userSpaceOnUse" x="3" y="6" width="17" height="11">
<path d="M18.0115 7.21719L11.5 13.4868L4.98846 7.21719C4.54925 6.7943 3.83526 6.7943 3.39606 7.21719C2.95685 7.64008 2.95685 8.32754 3.39606 8.75043L10.7004 15.7834C10.9211 15.9959 11.2117 16.1022 11.5 16.1C11.7905 16.1 12.0788 15.9959 12.2996 15.7834L19.6039 8.75043C20.0431 8.32754 20.0431 7.64008 19.6039 7.21719C19.1647 6.7943 18.4507 6.7943 18.0115 7.21719Z" fill="white"/>
</mask>
<g mask="url(#mask0_1_5390)">
<rect width="23" height="23" fill="white"/>
</g>
</svg>
