<svg width="50" height="36" viewBox="0 0 50 36" fill="none" xmlns="http://www.w3.org/2000/svg">
<path fill-rule="evenodd" clip-rule="evenodd" d="M8.04692 35.4295C12.492 35.4295 16.0943 31.8264 16.0943 27.3823C16.0943 27.1032 16.0802 26.8282 16.0521 26.5565L19.2946 25.9872C19.2946 25.9872 19.4044 25.8409 20.2036 26.6417C20.5454 26.9835 21.0105 27.0268 21.4347 26.9714C22.189 27.2264 23.8949 27.7169 25.8652 27.7169C27.3938 27.7169 29.0776 27.4194 30.5828 26.4818C32.8778 25.0505 34.2351 22.4453 34.646 18.76C35.6568 17.6455 36.7093 16.7759 37.7409 16.0989L38.6271 18.7383C35.844 20.0046 33.9054 22.8038 33.9054 26.0602C33.9054 30.5045 37.5093 34.1068 41.9527 34.1068C46.3962 34.1068 50.0001 30.5037 50.0001 26.0602C50.0001 21.6153 46.3962 18.0134 41.9527 18.0134C41.3464 18.0134 40.7571 18.0858 40.1886 18.2133L39.1948 15.2518C42.2954 13.6718 44.862 13.6955 44.862 13.6955L45.8254 14.2227L49.0255 14.4772C47.0981 12.2411 39.4971 12.6402 39.4971 12.6402L41.1166 12.3677C41.1166 12.3677 41.0618 10.622 40.0616 8.47621C39.0614 6.33063 37.9702 5.07576 37.9702 5.07576C37.8704 5.18834 37.8053 5.32111 37.7537 5.45854C37.7714 3.98146 37.7907 2.50438 37.9042 1.02963C37.9052 1.01765 37.9031 1.00785 37.901 0.998016V0.998L37.901 0.997922C37.8996 0.990962 37.8981 0.983985 37.8977 0.976211C37.9339 0.824652 37.8857 0.661446 37.7006 0.570915C37.104 0.279443 36.517 0.03347 35.8457 0.000394074C35.6631 -0.00845723 35.4959 0.133008 35.4493 0.302736C35.237 1.06985 35.1808 1.87361 35.2723 2.66153L35.2435 2.60326L35.2435 2.60317L35.2435 2.60306C35.1873 2.48915 35.1314 2.37565 35.0696 2.26307C34.9578 2.06213 34.764 2.03138 34.5968 2.09349C34.4086 2.06119 34.1947 2.13371 34.1112 2.36198C34.0606 2.50002 33.9878 2.62114 33.9157 2.74107C33.7952 2.94145 33.6768 3.13852 33.6672 3.40566C33.6433 4.07712 34.4232 4.51331 34.9168 4.7818C35.0103 4.83289 35.1035 4.83538 35.1918 4.81876C35.4345 5.80172 35.5151 6.81698 35.4555 7.85942C33.9534 8.83353 34.5325 9.72207 34.5325 9.72207L34.2598 10.1856C34.2598 10.1856 32.8406 8.16735 28.2043 11.1678C24.0356 13.8656 20.6602 12.5941 17.8012 11.517L17.8011 11.517L17.801 11.5169C17.4803 11.3961 17.1662 11.2778 16.8582 11.1678C13.8035 10.0766 2.56579 9.80453 2.56579 9.80453C8.09397 10.6407 10.5304 15.1866 10.5304 15.1866L6.16656 12.4958C4.23884 12.6779 4.74771 14.7142 4.74771 14.7142L12.785 19.6236C14.3486 19.0414 16.1305 20.7871 16.1305 20.7871L17.8034 23.7334L15.5114 24.3862C14.3212 21.428 11.4315 19.3372 8.04707 19.3372C3.60232 19.3372 0 22.9405 0 27.3838C0 31.8272 3.6031 35.4295 8.04692 35.4295ZM41.9517 20.4823C45.0275 20.4823 47.5281 22.9838 47.5281 26.0594C47.5281 29.1344 45.0273 31.6357 41.9517 31.6357C38.8761 31.6357 36.3754 29.1344 36.3754 26.0594C36.3754 23.8972 37.6138 22.0221 39.4181 21.0974L41.171 26.3207C41.2868 26.665 41.6076 26.8829 41.9517 26.8829C42.0378 26.8829 42.1263 26.8683 42.2131 26.8403C42.644 26.6947 42.8765 26.2285 42.7327 25.7965L40.9797 20.5724C41.2957 20.5169 41.6197 20.4823 41.9517 20.4823ZM36.964 3.5111C36.7334 3.71266 36.4911 3.90397 36.2403 4.09979C36.1246 4.18877 35.9975 4.21672 35.8808 4.19933C36.1888 5.23508 36.3231 6.30982 36.3014 7.40971C36.4832 7.32803 36.681 7.2465 36.8997 7.16606C36.9107 6.64274 36.9182 6.11938 36.9257 5.59609C36.9357 4.90092 36.9456 4.20586 36.964 3.5111ZM27.4774 16.9677C31.3128 15.8175 32.6138 17.5491 33.0223 18.4746C32.6838 21.6862 31.5799 23.9151 29.7175 25.0802C27.2747 26.6071 24.0744 26.0105 22.5379 25.5834C22.7067 23.3281 23.5244 18.1536 27.4774 16.9677ZM13.1142 25.0673C12.2322 23.1464 10.2959 21.806 8.04692 21.806C4.97241 21.806 2.47013 24.3073 2.4692 27.3823C2.4692 30.4579 4.9707 32.9594 8.04599 32.9594C11.1217 32.9594 13.6232 30.4579 13.6232 27.3823C13.6232 27.2644 13.6149 27.1489 13.6065 27.0332C13.6054 27.0179 13.6043 27.0027 13.6032 26.9874L7.29316 28.0963L7.07483 26.7872L13.1142 25.0673Z" fill="#242E42"/>
<path d="M32.0237 19.8954H24.7677L23.5671 25.0238C30.8778 26.3868 32.0237 19.8954 32.0237 19.8954Z" fill="#242E42"/>
</svg>
