<svg width="50" height="24" viewBox="0 0 50 24" fill="none" xmlns="http://www.w3.org/2000/svg">
<path d="M9.60201 16.1255C7.5028 16.1255 5.8003 17.8265 5.8003 19.9267C5.8003 20.0896 5.81337 20.249 5.83349 20.4049C6.0693 22.2798 7.6647 23.7289 9.60151 23.7289C11.5921 23.7289 13.2227 22.1994 13.3876 20.2515C13.3967 20.1439 13.4042 20.0363 13.4042 19.9267C13.4047 17.8265 11.7027 16.1255 9.60201 16.1255Z" fill="#242E42"/>
<path d="M42.218 16.1255C40.1183 16.1255 38.4163 17.8265 38.4163 19.9267C38.4163 20.0896 38.4289 20.249 38.449 20.4049C38.6843 22.2798 40.2807 23.7289 42.217 23.7289C44.2071 23.7289 45.8377 22.1994 46.0032 20.2515C46.0122 20.1439 46.0187 20.0363 46.0187 19.9267C46.0198 17.8265 44.3183 16.1255 42.218 16.1255Z" fill="#242E42"/>
<path fill-rule="evenodd" clip-rule="evenodd" d="M35.3899 0.309215C35.2002 0.11167 34.9402 0 34.6663 0H28.1777L23.1412 4.52151C22.3912 4.61539 21.7425 4.73013 21.2254 4.86916C18.2378 5.67315 10.6987 10.6293 10.6987 10.6293C10.6987 10.6293 2.40395 11.914 0.821618 15.6971C0.821618 15.6971 0.138809 16.0958 0.0146163 17.118C-0.0492399 17.6439 0.10663 18.4424 0.278589 19.1116C0.467141 19.8437 1.07403 20.3948 1.82069 20.5109L5.42078 21.0751C5.36697 20.8785 5.32223 20.6789 5.29608 20.4727C5.27345 20.2947 5.25837 20.1127 5.25837 19.9262C5.25837 17.5313 7.20674 15.5834 9.6021 15.5834C11.998 15.5834 13.9463 17.5313 13.9463 19.9262C13.9463 20.0514 13.9383 20.174 13.9282 20.2957C13.892 20.7201 13.7935 21.1259 13.6431 21.5065L14.0665 21.5291L37.9839 20.882C37.9533 20.7472 37.9291 20.6115 37.911 20.4727C37.8879 20.2947 37.8738 20.1127 37.8738 19.9262C37.8738 17.5313 39.8222 15.5834 42.217 15.5834C44.6129 15.5834 46.5613 17.5313 46.5613 19.9262C46.5613 20.0514 46.5532 20.174 46.5427 20.2957C46.5382 20.3503 46.5303 20.4038 46.5224 20.4574L46.5175 20.4908L46.5115 20.5335L48.5755 20.1122C49.4268 19.9382 50.0291 19.177 49.999 18.3076L49.8235 13.0423C49.7953 12.2026 49.564 11.3825 49.1502 10.6519L46.42 5.83455C45.9725 5.04565 45.1524 4.54083 44.2469 4.49508C43.0779 4.4365 41.2918 4.35475 39.2067 4.2853L35.3899 0.309215ZM36.1591 4.20047C34.5556 4.12586 32.6819 4.05693 31.4307 4.06933C30.6151 4.07742 29.491 4.12575 28.3336 4.18819C30.8359 4.12327 33.5929 4.14393 36.1591 4.20047ZM36.6083 10.8711L36.0587 5.38504C33.4547 5.32621 30.64 5.30057 28.1742 5.35739V11.2161L36.6083 10.8711ZM14.776 11.6083L13.9418 11.655C13.715 11.6676 13.5074 11.5298 13.431 11.3156C13.3545 11.1024 13.4284 10.8646 13.611 10.7304C14.1012 10.3724 14.7015 9.94448 15.3703 9.49245V10.8923C14.963 11.2367 14.776 11.6083 14.776 11.6083ZM16.7577 10.335L16.7578 10.335C16.7851 10.3301 16.8125 10.3253 16.843 10.3241C18.3233 10.2688 18.5747 11.6083 18.5747 11.6083L25.8211 11.3121V5.44538C24.1115 5.5384 22.7359 5.69427 21.9817 5.93813C20.3244 6.47462 18.3972 7.54509 16.6967 8.6231V10.3442C16.7179 10.3421 16.7378 10.3385 16.7577 10.335L16.7577 10.335ZM46.1414 9.79213C45.8885 10.2316 45.428 10.5106 44.9216 10.5318L38.9624 10.7751L38.4284 5.44839C40.8912 5.52331 42.9486 5.61583 43.9909 5.67214C44.4731 5.69779 44.9081 5.97584 45.1328 6.40322L46.1671 8.36567C46.4039 8.81467 46.3938 9.35368 46.1414 9.79213Z" fill="#242E42"/>
</svg>
