<svg width="185" height="92" viewBox="0 0 185 92" fill="none" xmlns="http://www.w3.org/2000/svg">
<path fill-rule="evenodd" clip-rule="evenodd" d="M94.3733 0V7.22576H97.6219V35.3444H101.889V26.685H104.136V24.5934L109.052 26.685H110.256V21.4831L116.138 13.9435L122.02 21.4831V39.1731H124.781V42.6108H128.855V28.5807H132.231L132.09 22.7593H135.997V21.092H139.956L140.565 11.0097L141.174 21.092H141.936V22.7593H142.963L142.587 38.3495H143.316V31.4714L151.501 26.685V35.3444H159.687V28.5807H164.74V24.5934L173.395 30.6446V24.5934L185 32.7067V92H176.345H173.395H165.108H164.74H159.687H151.501H143.316H141.62H134.276H133.434H129.328H128.855H122.02H117.565H110.256H101.889H97.6219H90.3897H87.298H80.0461H78.0798H71.4205H67.7945H61.9373H59.8153H56.7945H51.6521H50.3318H45.1893H42.4142H40.0465H30.8096H26.9825H22.005H17.0268H13.1945H12.0492H6.48947H5.0092H0V34.214H3.94189L3.66554 22.7593H12.0492V6.17818H17.0268V9.70281H22.005V12.9298H26.9825V29.5669H30.8096V21.8317H32.1723V20.9786H41.0512V21.8317H42.4142V37.9611H45.1893V17.2315H46.5526V16.3784H55.4312V17.2315H56.7945V29.1685H59.8153V21.8317H61.1783V20.9786H70.0569V21.8317H71.4205V24.5934L74.2696 27.6318V32.7259H78.0798V29.5669H80.0461V21.8317H87.298V17.2521L90.3897 14.6401V7.22576H93.6385V0H94.3733Z" fill="#FDDA38" fill-opacity="0.2"/>
</svg>
