<svg width="272" height="295" viewBox="0 0 272 295" fill="none" xmlns="http://www.w3.org/2000/svg">
<g filter="url(#filter0_d_1_4785)">
<path fill-rule="evenodd" clip-rule="evenodd" d="M117.079 244.548L117.112 242.66L117.107 242.66L117.11 242.495C117.194 241.47 116.64 238.789 116.64 238.789C116.249 237.73 114.913 237.228 113.81 236.991C113.545 236.672 113.107 236.458 112.605 236.448L109.636 236.388C109.238 236.38 108.872 236.504 108.602 236.71L108.168 236.702L106.848 236.675L106.373 235.433L105.923 235.424L106.08 236.66L98.1936 236.501C97.9298 236.284 97.5705 236.145 97.1708 236.137L89.9164 235.991C89.4717 235.982 89.0698 236.137 88.7917 236.387C87.9112 236.499 86.5618 236.815 86.4571 237.705L86.3643 243.092L86.2716 248.479C86.3456 249.372 87.6833 249.742 88.5591 249.889C88.8286 250.151 89.2246 250.322 89.6695 250.331L96.9237 250.476C97.3236 250.484 97.6876 250.361 97.9583 250.154L105.897 250.314L105.714 251.441L106.164 251.45L106.638 250.329L107.932 250.355L108.374 250.371C108.638 250.585 108.993 250.72 109.389 250.728L112.358 250.787C112.762 250.795 113.132 250.669 113.404 250.458C114.543 250.283 116.019 249.845 116.469 248.747C116.469 248.747 117.114 246.09 117.066 245.062L117.075 244.548L117.079 244.548Z" fill="white"/>
</g>
<rect x="87.112" y="240.586" width="2.00312" height="5.00781" rx="1" fill="#242E42"/>
<rect x="87.112" y="237.581" width="2.00312" height="4.00625" rx="1" fill="#F52D56"/>
<rect x="116.157" y="241.588" width="1.00156" height="5.00781" rx="0.5" fill="#242E42"/>
<rect x="87.112" y="244.592" width="2.00312" height="4.00625" rx="1" fill="#F52D56"/>
<path fill-rule="evenodd" clip-rule="evenodd" d="M109.46 244.147L109.452 244.147C109.298 246.124 108.964 247.398 108.576 248.214C108.149 249.114 107.657 249.459 107.272 249.579C107.266 249.581 107.26 249.582 107.255 249.584C107.182 249.606 107.114 249.62 107.049 249.627C106.784 249.661 106.607 249.594 106.607 249.594L102.135 247.703C102.778 247.295 103.12 244.463 103.229 243.392C103.232 242.316 103.186 239.464 102.59 238.988L107.233 237.598C107.233 237.598 107.416 237.551 107.676 237.614C107.738 237.628 107.803 237.649 107.872 237.678C107.878 237.68 107.886 237.683 107.892 237.686C108.262 237.848 108.716 238.246 109.048 239.187C109.348 240.042 109.547 241.345 109.495 243.327L109.503 243.327C109.496 243.467 109.488 243.603 109.481 243.737C109.474 243.871 109.468 244.007 109.46 244.147Z" fill="#242E42"/>
<path fill-rule="evenodd" clip-rule="evenodd" d="M95.8218 238.935L95.5284 244.559L95.3508 247.959L95.3399 248.172C94.4159 249.275 92.3265 249.217 90.9484 249.034L91.5491 237.521C92.9383 237.49 95.0221 237.662 95.8258 238.859L95.8218 238.935Z" fill="#242E42"/>
<path fill-rule="evenodd" clip-rule="evenodd" d="M95.3144 236.58C96.4692 236.58 105.14 236.58 105.14 236.58C105.14 236.58 100.902 238.583 99.7528 238.583C98.6033 238.583 94.1596 236.58 95.3144 236.58Z" fill="#242E42"/>
<path fill-rule="evenodd" clip-rule="evenodd" d="M95.3196 250.602C96.4744 250.602 105.145 250.602 105.145 250.602C105.145 250.602 100.763 248.599 99.6137 248.599C98.4642 248.599 94.1648 250.602 95.3196 250.602Z" fill="#242E42"/>
<g filter="url(#filter1_d_1_4785)">
<path fill-rule="evenodd" clip-rule="evenodd" d="M32.531 90.3261L33.5316 88.724L33.5278 88.7216L33.6151 88.5819C34.2146 87.7462 35.1213 85.1628 35.1213 85.1628C35.331 84.0536 34.4449 82.9355 33.6207 82.1641C33.5576 81.7545 33.2926 81.345 32.8679 81.0781L30.3537 79.4981C30.0163 79.286 29.6395 79.2037 29.3011 79.2411L28.9336 79.0101L27.8162 78.3076L28.0489 76.9983L27.668 76.7588L27.1661 77.8991L20.4875 73.7012C20.3732 73.3793 20.1365 73.0755 19.7982 72.8627L13.6551 69.0013C13.2785 68.7646 12.8544 68.6901 12.4872 68.7613C11.6747 68.4039 10.3553 67.9797 9.80716 68.6886L6.95311 73.2584L4.0995 77.8277C3.70264 78.6318 4.65905 79.6374 5.3336 80.2152C5.42986 80.5782 5.68147 80.9284 6.0582 81.1652L12.2011 85.0265C12.5397 85.2393 12.9155 85.3207 13.2538 85.2833L19.9765 89.5088L19.2395 90.3806L19.6201 90.62L20.6036 89.903L21.6999 90.592L22.0698 90.8334C22.1867 91.1525 22.4212 91.4513 22.7567 91.6622L25.2709 93.2422C25.6131 93.4571 25.9953 93.5391 26.3369 93.4984C27.4035 93.9352 28.8944 94.3206 29.8455 93.6105C29.8455 93.6105 31.7668 91.6652 32.255 90.7596L32.5273 90.3238L32.531 90.3261Z" fill="white"/>
</g>
<rect x="8.88471" y="71.4953" width="2.00312" height="5.00781" rx="1" transform="rotate(31 8.88471 71.4953)" fill="#242E42"/>
<rect x="10.4323" y="68.9198" width="2.00312" height="4.00625" rx="1" transform="rotate(31 10.4323 68.9198)" fill="#F52D56"/>
<rect x="33.2656" y="87.3133" width="1.00156" height="5.00781" rx="0.5" transform="rotate(31 33.2656 87.3133)" fill="#242E42"/>
<rect x="6.82143" y="74.9294" width="2.00312" height="4.00625" rx="1" transform="rotate(31 6.82143 74.9294)" fill="#F52D56"/>
<path fill-rule="evenodd" clip-rule="evenodd" d="M26.2067 86.058L26.1999 86.0535C25.0493 87.6688 24.1072 88.5885 23.3543 89.0887C22.5244 89.6398 21.9249 89.6825 21.5331 89.5871C21.5272 89.5858 21.522 89.5836 21.5167 89.5825C21.4428 89.5637 21.3771 89.5405 21.3179 89.5138C21.073 89.4056 20.9561 89.2578 20.9561 89.2578L18.0968 85.3335C18.8577 85.3146 20.6098 83.0633 21.2542 82.2016C21.8118 81.2805 23.2409 78.8118 22.9754 78.0971L27.6709 79.2975C27.6709 79.2975 27.8515 79.3511 28.0424 79.5393C28.0883 79.5834 28.1328 79.6348 28.1775 79.6948C28.1815 79.6999 28.1864 79.706 28.1907 79.7118C28.4244 80.0416 28.6081 80.6159 28.4078 81.5942C28.2245 82.4814 27.7247 83.7005 26.6589 85.3727L26.6656 85.3772C26.5879 85.4934 26.5112 85.6062 26.4357 85.7172C26.3613 85.8286 26.2855 85.9422 26.2067 86.058Z" fill="#242E42"/>
<path fill-rule="evenodd" clip-rule="evenodd" d="M17.2009 74.566L14.0529 79.2355L12.1495 82.0585L12.0304 82.2355C10.6703 82.705 8.90937 81.5789 7.82244 80.7121L14.2669 71.1531C15.4735 71.8423 17.1713 73.0625 17.2433 74.5031L17.2009 74.566Z" fill="#242E42"/>
<path fill-rule="evenodd" clip-rule="evenodd" d="M17.9791 72.286C18.9689 72.8807 26.4013 77.3465 26.4013 77.3465C26.4013 77.3465 21.7372 76.881 20.7519 76.2889C19.7665 75.6968 16.9893 71.6912 17.9791 72.286Z" fill="#242E42"/>
<path fill-rule="evenodd" clip-rule="evenodd" d="M10.7616 84.3076C11.7515 84.9024 19.1838 89.3682 19.1838 89.3682C19.1838 89.3682 16.4594 85.3943 15.4741 84.8023C14.4887 84.2102 9.77177 83.7129 10.7616 84.3076Z" fill="#242E42"/>
<g filter="url(#filter2_d_1_4785)">
<path fill-rule="evenodd" clip-rule="evenodd" d="M234.602 29.8573L236.149 30.9404L236.152 30.9367L236.287 31.0312C237.09 31.6736 239.622 32.7143 239.622 32.7143C240.719 32.9818 241.882 32.1554 242.695 31.3727C243.108 31.3311 243.53 31.0879 243.819 30.6778L245.529 28.2497C245.758 27.9238 245.86 27.5518 245.84 27.212L246.09 26.857L246.85 25.778L248.146 26.0788L248.405 25.7111L247.292 25.1501L251.834 18.7004C252.161 18.6032 252.477 18.3827 252.707 18.0559L256.885 12.1233C257.141 11.7597 257.238 11.34 257.186 10.9696C257.585 10.1769 258.078 8.88155 257.399 8.29704L252.985 5.20773L248.571 2.1189C247.789 1.6805 246.734 2.58297 246.122 3.22635C245.754 3.30348 245.392 3.53642 245.135 3.90024L240.958 9.83268C240.728 10.1597 240.627 10.5306 240.646 10.8704L236.075 17.3628L235.243 16.5811L234.984 16.9488L235.648 17.9684L234.903 19.0272L234.642 19.3839C234.318 19.4839 234.007 19.7025 233.779 20.0265L232.069 22.4546C231.837 22.785 231.735 23.1624 231.758 23.5057C231.266 24.5479 230.803 26.0166 231.462 27.0036C231.462 27.0036 233.304 29.0241 234.183 29.559L234.604 29.8537L234.602 29.8573Z" fill="white"/>
</g>
<rect x="254.644" y="7.22893" width="2.00312" height="5.00781" rx="1" transform="rotate(124 254.644 7.22893)" fill="#242E42"/>
<rect x="257.135" y="8.90916" width="2.00312" height="4.00625" rx="1" transform="rotate(124 257.135 8.90916)" fill="#F52D56"/>
<rect x="237.572" y="30.7485" width="1.00156" height="5.00781" rx="0.5" transform="rotate(124 237.572 30.7485)" fill="#242E42"/>
<rect x="251.323" y="4.98874" width="2.00312" height="4.00625" rx="1" transform="rotate(124 251.323 4.98874)" fill="#F52D56"/>
<path fill-rule="evenodd" clip-rule="evenodd" d="M239.195 23.765L239.2 23.7584C237.647 22.5249 236.778 21.5359 236.318 20.7578C235.811 19.9003 235.799 19.2993 235.915 18.913C235.917 18.9073 235.919 18.9021 235.921 18.8969C235.943 18.8241 235.97 18.7597 236 18.702C236.12 18.4631 236.274 18.354 236.274 18.354L240.343 15.7041C240.322 16.4649 242.478 18.3325 243.305 19.0211C244.196 19.6262 246.586 21.1825 247.314 20.9547L245.869 25.581C245.869 25.581 245.806 25.7586 245.609 25.9394C245.562 25.9828 245.508 26.0246 245.446 26.0661C245.441 26.0698 245.434 26.0744 245.429 26.0784C245.087 26.2945 244.504 26.4479 243.537 26.1967C242.661 25.9672 241.47 25.4043 239.856 24.2524L239.851 24.2589C239.739 24.1751 239.63 24.0927 239.523 24.0115C239.416 23.9313 239.306 23.8498 239.195 23.765Z" fill="#242E42"/>
<path fill-rule="evenodd" clip-rule="evenodd" d="M251.142 15.3729L246.644 11.9849L243.925 9.93637L243.754 9.80812C243.356 8.42536 244.573 6.72576 245.496 5.68568L254.704 12.6215C253.953 13.7905 252.645 15.422 251.203 15.4186L251.142 15.3729Z" fill="#242E42"/>
<path fill-rule="evenodd" clip-rule="evenodd" d="M253.379 16.2694C252.733 17.2268 247.884 24.4152 247.884 24.4152C247.884 24.4152 248.593 19.7819 249.236 18.8289C249.879 17.8759 254.024 15.3121 253.379 16.2694Z" fill="#242E42"/>
<path fill-rule="evenodd" clip-rule="evenodd" d="M241.751 8.43275C241.105 9.39011 236.257 16.5785 236.257 16.5785C236.257 16.5785 240.368 14.0659 241.011 13.1129C241.653 12.1598 242.397 7.47539 241.751 8.43275Z" fill="#242E42"/>
<g filter="url(#filter3_d_1_4785)">
<path fill-rule="evenodd" clip-rule="evenodd" d="M239.262 267.133L238.29 268.753L238.293 268.755L238.209 268.896C237.624 269.742 236.762 272.341 236.762 272.341C236.572 273.454 237.477 274.556 238.315 275.313C238.385 275.722 238.657 276.126 239.087 276.386L241.628 277.922C241.969 278.128 242.347 278.204 242.685 278.16L243.056 278.385L244.186 279.068L243.976 280.381L244.361 280.614L244.843 279.465L251.594 283.546C251.714 283.865 251.956 284.165 252.298 284.372L258.507 288.126C258.888 288.356 259.313 288.423 259.679 288.345C260.498 288.688 261.824 289.089 262.36 288.371L265.134 283.752L267.907 279.134C268.29 278.323 267.316 277.334 266.632 276.768C266.529 276.407 266.272 276.061 265.891 275.831L259.681 272.077C259.339 271.871 258.962 271.796 258.624 271.839L251.829 267.731L252.551 266.847L252.166 266.614L251.195 267.348L250.087 266.679L249.713 266.444C249.59 266.127 249.351 265.832 249.012 265.627L246.47 264.091C246.124 263.882 245.741 263.807 245.4 263.854C244.326 263.435 242.828 263.076 241.89 263.803C241.89 263.803 240.003 265.781 239.531 266.695L239.266 267.136L239.262 267.133Z" fill="white"/>
</g>
<rect x="263.233" y="285.549" width="2.00312" height="5.00781" rx="1" transform="rotate(-150 263.233 285.549)" fill="#242E42"/>
<rect x="261.731" y="288.151" width="2.00312" height="4.00625" rx="1" transform="rotate(-150 261.731 288.151)" fill="#F52D56"/>
<rect x="238.58" y="270.159" width="1.00156" height="5.00781" rx="0.5" transform="rotate(-150 238.58 270.159)" fill="#242E42"/>
<rect x="265.237" y="282.079" width="2.00312" height="4.00625" rx="1" transform="rotate(-150 265.237 282.079)" fill="#F52D56"/>
<path fill-rule="evenodd" clip-rule="evenodd" d="M245.66 271.29L245.667 271.295C246.789 269.66 247.715 268.724 248.459 268.21C249.279 267.645 249.878 267.592 250.271 267.68C250.277 267.681 250.282 267.684 250.288 267.685C250.362 267.702 250.428 267.724 250.488 267.75C250.734 267.854 250.854 267.999 250.854 267.999L253.781 271.873C253.021 271.905 251.308 274.187 250.679 275.06C250.138 275.99 248.752 278.484 249.03 279.194L244.314 278.075C244.314 278.075 244.132 278.025 243.938 277.84C243.892 277.797 243.846 277.746 243.801 277.687C243.796 277.682 243.791 277.676 243.787 277.67C243.548 277.345 243.354 276.774 243.537 275.792C243.705 274.902 244.183 273.674 245.22 271.983L245.213 271.979C245.289 271.862 245.363 271.747 245.437 271.635C245.509 271.522 245.583 271.408 245.66 271.29Z" fill="#242E42"/>
<path fill-rule="evenodd" clip-rule="evenodd" d="M254.865 282.623L257.931 277.9L259.785 275.044L259.901 274.865C261.252 274.372 263.033 275.467 264.135 276.315L257.858 285.985C256.64 285.317 254.921 284.126 254.824 282.687L254.865 282.623Z" fill="#242E42"/>
<path fill-rule="evenodd" clip-rule="evenodd" d="M254.127 284.917C253.127 284.339 245.617 280.004 245.617 280.004C245.617 280.004 250.289 280.388 251.284 280.963C252.28 281.538 255.127 285.494 254.127 284.917Z" fill="#242E42"/>
<path fill-rule="evenodd" clip-rule="evenodd" d="M261.133 272.771C260.133 272.194 252.624 267.858 252.624 267.858C252.624 267.858 255.417 271.784 256.413 272.359C257.408 272.933 262.133 273.348 261.133 272.771Z" fill="#242E42"/>
<g filter="url(#filter4_d_1_4785)">
<path fill-rule="evenodd" clip-rule="evenodd" d="M176.164 174.99L175.191 176.609L175.195 176.611L175.11 176.752C174.525 177.599 173.664 180.197 173.664 180.197C173.474 181.31 174.379 182.413 175.217 183.169C175.287 183.578 175.559 183.983 175.988 184.242L178.53 185.778C178.871 185.984 179.249 186.06 179.586 186.017L179.958 186.241L181.087 186.924L180.878 188.237L181.263 188.47L181.745 187.321L188.495 191.402C188.615 191.722 188.857 192.021 189.199 192.228L195.409 195.982C195.79 196.212 196.215 196.279 196.581 196.201C197.399 196.545 198.726 196.946 199.262 196.227L202.036 191.608L204.809 186.99C205.192 186.179 204.218 185.19 203.533 184.624C203.431 184.263 203.173 183.917 202.792 183.687L196.583 179.934C196.241 179.727 195.864 179.652 195.526 179.695L188.73 175.588L189.452 174.703L189.067 174.47L188.097 175.204L186.988 174.535L186.614 174.3C186.492 173.983 186.252 173.688 185.913 173.483L183.372 171.947C183.026 171.738 182.642 171.663 182.301 171.71C181.227 171.292 179.73 170.932 178.791 171.659C178.791 171.659 176.904 173.637 176.432 174.551L176.167 174.992L176.164 174.99Z" fill="white"/>
</g>
<rect x="200.135" y="193.405" width="2.00312" height="5.00781" rx="1" transform="rotate(-150 200.135 193.405)" fill="#242E42"/>
<rect x="198.633" y="196.007" width="2.00312" height="4.00625" rx="1" transform="rotate(-150 198.633 196.007)" fill="#F52D56"/>
<rect x="175.482" y="178.015" width="1.00156" height="5.00781" rx="0.5" transform="rotate(-150 175.482 178.015)" fill="#242E42"/>
<rect x="202.138" y="189.935" width="2.00312" height="4.00625" rx="1" transform="rotate(-150 202.138 189.935)" fill="#F52D56"/>
<path fill-rule="evenodd" clip-rule="evenodd" d="M182.562 179.147L182.568 179.151C183.691 177.516 184.617 176.58 185.361 176.067C186.181 175.501 186.779 175.448 187.173 175.537C187.179 175.538 187.184 175.54 187.189 175.541C187.264 175.558 187.33 175.58 187.389 175.606C187.636 175.71 187.756 175.856 187.756 175.856L190.683 179.729C189.922 179.762 188.21 182.043 187.581 182.916C187.039 183.847 185.653 186.34 185.931 187.05L181.216 185.932C181.216 185.932 181.034 185.881 180.84 185.696C180.793 185.653 180.748 185.602 180.702 185.543C180.698 185.538 180.693 185.532 180.689 185.527C180.449 185.201 180.256 184.63 180.439 183.648C180.606 182.758 181.085 181.53 182.121 179.84L182.115 179.835C182.19 179.718 182.265 179.604 182.339 179.491C182.411 179.379 182.485 179.264 182.562 179.147Z" fill="#242E42"/>
<path fill-rule="evenodd" clip-rule="evenodd" d="M191.767 190.48L194.833 185.756L196.686 182.9L196.802 182.721C198.154 182.228 199.934 183.323 201.036 184.171L194.76 193.841C193.541 193.173 191.822 191.982 191.725 190.543L191.767 190.48Z" fill="#242E42"/>
<path fill-rule="evenodd" clip-rule="evenodd" d="M191.028 192.773C190.028 192.196 182.519 187.86 182.519 187.86C182.519 187.86 187.191 188.244 188.186 188.819C189.182 189.394 192.028 193.35 191.028 192.773Z" fill="#242E42"/>
<path fill-rule="evenodd" clip-rule="evenodd" d="M198.035 180.627C197.035 180.05 189.526 175.714 189.526 175.714C189.526 175.714 192.319 179.64 193.314 180.215C194.31 180.79 199.035 181.205 198.035 180.627Z" fill="#242E42"/>
<defs>
<filter id="filter0_d_1_4785" x="82.2653" y="233.421" width="38.8598" height="24.0388" filterUnits="userSpaceOnUse" color-interpolation-filters="sRGB">
<feFlood flood-opacity="0" result="BackgroundImageFix"/>
<feColorMatrix in="SourceAlpha" type="matrix" values="0 0 0 0 0 0 0 0 0 0 0 0 0 0 0 0 0 0 127 0" result="hardAlpha"/>
<feOffset dy="2"/>
<feGaussianBlur stdDeviation="2"/>
<feColorMatrix type="matrix" values="0 0 0 0 0 0 0 0 0 0 0 0 0 0 0 0 0 0 0.2 0"/>
<feBlend mode="normal" in2="BackgroundImageFix" result="effect1_dropShadow_1_4785"/>
<feBlend mode="normal" in="SourceGraphic" in2="effect1_dropShadow_1_4785" result="shape"/>
</filter>
<filter id="filter1_d_1_4785" x="0" y="66.3019" width="39.1587" height="33.711" filterUnits="userSpaceOnUse" color-interpolation-filters="sRGB">
<feFlood flood-opacity="0" result="BackgroundImageFix"/>
<feColorMatrix in="SourceAlpha" type="matrix" values="0 0 0 0 0 0 0 0 0 0 0 0 0 0 0 0 0 0 127 0" result="hardAlpha"/>
<feOffset dy="2"/>
<feGaussianBlur stdDeviation="2"/>
<feColorMatrix type="matrix" values="0 0 0 0 0 0 0 0 0 0 0 0 0 0 0 0 0 0 0.2 0"/>
<feBlend mode="normal" in2="BackgroundImageFix" result="effect1_dropShadow_1_4785"/>
<feBlend mode="normal" in="SourceGraphic" in2="effect1_dropShadow_1_4785" result="shape"/>
</filter>
<filter id="filter2_d_1_4785" x="227.129" y="0" width="34.6126" height="38.775" filterUnits="userSpaceOnUse" color-interpolation-filters="sRGB">
<feFlood flood-opacity="0" result="BackgroundImageFix"/>
<feColorMatrix in="SourceAlpha" type="matrix" values="0 0 0 0 0 0 0 0 0 0 0 0 0 0 0 0 0 0 127 0" result="hardAlpha"/>
<feOffset dy="2"/>
<feGaussianBlur stdDeviation="2"/>
<feColorMatrix type="matrix" values="0 0 0 0 0 0 0 0 0 0 0 0 0 0 0 0 0 0 0.2 0"/>
<feBlend mode="normal" in2="BackgroundImageFix" result="effect1_dropShadow_1_4785"/>
<feBlend mode="normal" in="SourceGraphic" in2="effect1_dropShadow_1_4785" result="shape"/>
</filter>
<filter id="filter3_d_1_4785" x="232.73" y="261.383" width="39.2695" height="33.3979" filterUnits="userSpaceOnUse" color-interpolation-filters="sRGB">
<feFlood flood-opacity="0" result="BackgroundImageFix"/>
<feColorMatrix in="SourceAlpha" type="matrix" values="0 0 0 0 0 0 0 0 0 0 0 0 0 0 0 0 0 0 127 0" result="hardAlpha"/>
<feOffset dy="2"/>
<feGaussianBlur stdDeviation="2"/>
<feColorMatrix type="matrix" values="0 0 0 0 0 0 0 0 0 0 0 0 0 0 0 0 0 0 0.2 0"/>
<feBlend mode="normal" in2="BackgroundImageFix" result="effect1_dropShadow_1_4785"/>
<feBlend mode="normal" in="SourceGraphic" in2="effect1_dropShadow_1_4785" result="shape"/>
</filter>
<filter id="filter4_d_1_4785" x="169.632" y="169.239" width="39.2695" height="33.3979" filterUnits="userSpaceOnUse" color-interpolation-filters="sRGB">
<feFlood flood-opacity="0" result="BackgroundImageFix"/>
<feColorMatrix in="SourceAlpha" type="matrix" values="0 0 0 0 0 0 0 0 0 0 0 0 0 0 0 0 0 0 127 0" result="hardAlpha"/>
<feOffset dy="2"/>
<feGaussianBlur stdDeviation="2"/>
<feColorMatrix type="matrix" values="0 0 0 0 0 0 0 0 0 0 0 0 0 0 0 0 0 0 0.2 0"/>
<feBlend mode="normal" in2="BackgroundImageFix" result="effect1_dropShadow_1_4785"/>
<feBlend mode="normal" in="SourceGraphic" in2="effect1_dropShadow_1_4785" result="shape"/>
</filter>
</defs>
</svg>
