<svg width="22" height="5" viewBox="0 0 22 5" fill="none" xmlns="http://www.w3.org/2000/svg">
<path fill-rule="evenodd" clip-rule="evenodd" d="M2.5 5C3.88071 5 5 3.88071 5 2.5C5 1.11929 3.88071 0 2.5 0C1.11929 0 0 1.11929 0 2.5C0 3.88071 1.11929 5 2.5 5ZM11.5 5C12.8807 5 14 3.88071 14 2.5C14 1.11929 12.8807 0 11.5 0C10.1193 0 9 1.11929 9 2.5C9 3.88071 10.1193 5 11.5 5ZM22 2.5C22 3.88071 20.8807 5 19.5 5C18.1193 5 17 3.88071 17 2.5C17 1.11929 18.1193 0 19.5 0C20.8807 0 22 1.11929 22 2.5Z" fill="#C8C7CC"/>
</svg>
