<svg width="30" height="28" viewBox="0 0 30 28" fill="none" xmlns="http://www.w3.org/2000/svg">
<rect width="30" height="27.6667" fill="#FF0000" fill-opacity="0.01"/>
<path fill-rule="evenodd" clip-rule="evenodd" d="M3.24283 6.11225C2.85777 5.29271 3.67321 4.42423 4.51536 4.75696L26.0782 13.2764C26.922 13.6097 26.9215 14.8041 26.0774 15.1368L4.48657 23.6454C3.64808 23.9759 2.83471 23.1157 3.21152 22.297L6.24379 15.709C6.40025 15.3691 6.73342 15.1449 7.10725 15.1281L27.5697 14.2076L7.07329 13.0333C6.70692 13.0123 6.38147 12.7923 6.22542 12.4602L3.24283 6.11225Z" fill="#DC0D0D"/>
<mask id="mask0_1_5476" style="mask-type:luminance" maskUnits="userSpaceOnUse" x="3" y="4" width="25" height="20">
<path fill-rule="evenodd" clip-rule="evenodd" d="M3.24283 6.11225C2.85777 5.29271 3.67321 4.42423 4.51536 4.75696L26.0782 13.2764C26.922 13.6097 26.9215 14.8041 26.0774 15.1368L4.48657 23.6454C3.64808 23.9759 2.83471 23.1157 3.21152 22.297L6.24379 15.709C6.40025 15.3691 6.73342 15.1449 7.10725 15.1281L27.5697 14.2076L7.07329 13.0333C6.70692 13.0123 6.38147 12.7923 6.22542 12.4602L3.24283 6.11225Z" fill="white"/>
</mask>
<g mask="url(#mask0_1_5476)">
<rect width="30" height="27.6667" fill="#FDDA38"/>
</g>
</svg>
