<svg width="24" height="249" viewBox="0 0 24 249" fill="none" xmlns="http://www.w3.org/2000/svg">
<path fill-rule="evenodd" clip-rule="evenodd" d="M22.715 7.98431C23.2797 8.0706 23.7498 8.4848 23.927 9.05276C24.1027 9.62071 23.9555 10.2451 23.547 10.6609L18.8629 15.4305L19.9683 22.1659C20.0644 22.7543 19.8331 23.3489 19.3705 23.7003C19.1092 23.8996 18.7983 24 18.4875 24C18.2487 24 18.0084 23.9404 17.7891 23.8196L11.9997 20.6393L6.21027 23.8196C5.991 23.9404 5.75072 24 5.51193 24C5.19956 24 4.89018 23.8996 4.63037 23.7003C4.16782 23.3489 3.93654 22.7543 4.03266 22.1659L5.13798 15.4305L0.453869 10.6609C0.0438782 10.2436 -0.103298 9.62071 0.0739142 9.05276C0.249625 8.4848 0.719688 8.0706 1.28587 7.98431L7.75862 7.00216L10.6526 0.875466C10.9064 0.33889 11.4275 0 11.9997 0C12.5719 0 13.093 0.33889 13.3468 0.875466L16.2423 7.00216L22.715 7.98431ZM18.4875 22.4311L17.2485 14.8829L22.4973 9.53756L15.2436 8.43616L11.9997 1.56894L8.75582 8.43616L1.50213 9.53756L6.75091 14.8829L5.51193 22.4311L11.9997 18.868L18.4875 22.4311Z" fill="#C8C7CC"/>
<path d="M23.927 54.0528C23.7498 53.4848 23.2797 53.0706 22.715 52.9843L16.2423 52.0022L13.3468 45.8755C13.093 45.3389 12.5719 45 11.9997 45C11.4275 45 10.9064 45.3389 10.6526 45.8755L7.75862 52.0022L1.28587 52.9843C0.719688 53.0706 0.249625 53.4848 0.0739142 54.0528C-0.103298 54.6207 0.0438782 55.2436 0.453869 55.6609L5.13798 60.4305L4.03266 67.1659C3.93654 67.7543 4.16782 68.3489 4.63037 68.7003C4.89018 68.8996 5.19956 69 5.51193 69C5.75072 69 5.991 68.9404 6.21027 68.8196L11.9997 65.6393L17.7891 68.8196C18.0084 68.9404 18.2487 69 18.4875 69C18.7983 69 19.1092 68.8996 19.3705 68.7003C19.8331 68.3489 20.0644 67.7543 19.9683 67.1659L18.8629 60.4305L23.547 55.6609C23.9555 55.2451 24.1027 54.6207 23.927 54.0528Z" fill="#FFCC00"/>
<path fill-rule="evenodd" clip-rule="evenodd" d="M22.715 97.9843C23.2797 98.0706 23.7498 98.4848 23.927 99.0528C24.1027 99.6207 23.9555 100.245 23.547 100.661L18.8629 105.43L19.9683 112.166C20.0644 112.754 19.8331 113.349 19.3705 113.7C19.1092 113.9 18.7983 114 18.4875 114C18.2487 114 18.0084 113.94 17.7891 113.82L11.9997 110.639L6.21027 113.82C5.991 113.94 5.75072 114 5.51193 114C5.19956 114 4.89018 113.9 4.63037 113.7C4.16782 113.349 3.93654 112.754 4.03266 112.166L5.13798 105.43L0.453869 100.661C0.0438782 100.244 -0.103298 99.6207 0.0739142 99.0528C0.249625 98.4848 0.719688 98.0706 1.28587 97.9843L7.75862 97.0022L10.6526 90.8755C10.9064 90.3389 11.4275 90 11.9997 90C12.5719 90 13.093 90.3389 13.3468 90.8755L16.2423 97.0022L22.715 97.9843ZM18.4875 112.431L17.2485 104.883L22.4973 99.5376L15.2436 98.4362L11.9997 91.5689L8.75582 98.4362L1.50213 99.5376L6.75091 104.883L5.51193 112.431L11.9997 108.868L18.4875 112.431Z" fill="#C8C7CC"/>
<path fill-rule="evenodd" clip-rule="evenodd" d="M22.715 142.984C23.2797 143.071 23.7498 143.485 23.927 144.053C24.1027 144.621 23.9555 145.245 23.547 145.661L18.8629 150.43L19.9683 157.166C20.0644 157.754 19.8331 158.349 19.3705 158.7C19.1092 158.9 18.7983 159 18.4875 159C18.2487 159 18.0084 158.94 17.7891 158.82L11.9997 155.639L6.21027 158.82C5.991 158.94 5.75072 159 5.51193 159C5.19956 159 4.89018 158.9 4.63037 158.7C4.16782 158.349 3.93654 157.754 4.03266 157.166L5.13798 150.43L0.453869 145.661C0.0438782 145.244 -0.103298 144.621 0.0739142 144.053C0.249625 143.485 0.719688 143.071 1.28587 142.984L7.75862 142.002L10.6526 135.875C10.9064 135.339 11.4275 135 11.9997 135C12.5719 135 13.093 135.339 13.3468 135.875L16.2423 142.002L22.715 142.984ZM18.4875 157.431L17.2485 149.883L22.4973 144.538L15.2436 143.436L11.9997 136.569L8.75582 143.436L1.50213 144.538L6.75091 149.883L5.51193 157.431L11.9997 153.868L18.4875 157.431Z" fill="#C8C7CC"/>
<path fill-rule="evenodd" clip-rule="evenodd" d="M22.715 187.984C23.2797 188.071 23.7498 188.485 23.927 189.053C24.1027 189.621 23.9555 190.245 23.547 190.661L18.8629 195.43L19.9683 202.166C20.0644 202.754 19.8331 203.349 19.3705 203.7C19.1092 203.9 18.7983 204 18.4875 204C18.2487 204 18.0084 203.94 17.7891 203.82L11.9997 200.639L6.21027 203.82C5.991 203.94 5.75072 204 5.51193 204C5.19956 204 4.89018 203.9 4.63037 203.7C4.16782 203.349 3.93654 202.754 4.03266 202.166L5.13798 195.43L0.453869 190.661C0.0438782 190.244 -0.103298 189.621 0.0739142 189.053C0.249625 188.485 0.719688 188.071 1.28587 187.984L7.75862 187.002L10.6526 180.875C10.9064 180.339 11.4275 180 11.9997 180C12.5719 180 13.093 180.339 13.3468 180.875L16.2423 187.002L22.715 187.984ZM18.4875 202.431L17.2485 194.883L22.4973 189.538L15.2436 188.436L11.9997 181.569L8.75582 188.436L1.50213 189.538L6.75091 194.883L5.51193 202.431L11.9997 198.868L18.4875 202.431Z" fill="#C8C7CC"/>
<path fill-rule="evenodd" clip-rule="evenodd" d="M22.715 232.984C23.2797 233.071 23.7498 233.485 23.927 234.053C24.1027 234.621 23.9555 235.245 23.547 235.661L18.8629 240.43L19.9683 247.166C20.0644 247.754 19.8331 248.349 19.3705 248.7C19.1092 248.9 18.7983 249 18.4875 249C18.2487 249 18.0084 248.94 17.7891 248.82L11.9997 245.639L6.21027 248.82C5.991 248.94 5.75072 249 5.51193 249C5.19956 249 4.89018 248.9 4.63037 248.7C4.16782 248.349 3.93654 247.754 4.03266 247.166L5.13798 240.43L0.453869 235.661C0.0438782 235.244 -0.103298 234.621 0.0739142 234.053C0.249625 233.485 0.719688 233.071 1.28587 232.984L7.75862 232.002L10.6526 225.875C10.9064 225.339 11.4275 225 11.9997 225C12.5719 225 13.093 225.339 13.3468 225.875L16.2423 232.002L22.715 232.984ZM18.4875 247.431L17.2485 239.883L22.4973 234.538L15.2436 233.436L11.9997 226.569L8.75582 233.436L1.50213 234.538L6.75091 239.883L5.51193 247.431L11.9997 243.868L18.4875 247.431Z" fill="#C8C7CC"/>
</svg>
