<svg width="20" height="20" viewBox="0 0 20 20" fill="none" xmlns="http://www.w3.org/2000/svg">
<rect width="20" height="20" transform="matrix(-1 0 0 1 20 0)" fill="#FF0000" fill-opacity="0.01"/>
<path d="M11.5858 10L6.29289 4.45508C5.90237 4.04596 5.90237 3.38265 6.29289 2.97353C6.68342 2.56441 7.31658 2.56441 7.70711 2.97353L13.7071 9.25924C14.0976 9.66836 14.0976 10.3317 13.7071 10.7408L7.70711 17.0265C7.31658 17.4356 6.68342 17.4356 6.29289 17.0265C5.90237 16.6174 5.90237 15.9541 6.29289 15.545L11.5858 10Z" fill="#4A4A4A"/>
<mask id="mask0_1_5399" style="mask-type:luminance" maskUnits="userSpaceOnUse" x="6" y="2" width="8" height="16">
<path d="M11.5858 10L6.29289 4.45508C5.90237 4.04596 5.90237 3.38265 6.29289 2.97353C6.68342 2.56441 7.31658 2.56441 7.70711 2.97353L13.7071 9.25924C14.0976 9.66836 14.0976 10.3317 13.7071 10.7408L7.70711 17.0265C7.31658 17.4356 6.68342 17.4356 6.29289 17.0265C5.90237 16.6174 5.90237 15.9541 6.29289 15.545L11.5858 10Z" fill="white"/>
</mask>
<g mask="url(#mask0_1_5399)">
<rect width="20" height="20" transform="matrix(-1 0 0 1 20 0)" fill="#DAD9E2"/>
</g>
</svg>
