<svg width="50" height="22" viewBox="0 0 50 22" fill="none" xmlns="http://www.w3.org/2000/svg">
<path d="M0.426631 16.4769C0.438055 17.4171 1.85176 17.3864 1.9151 17.3847C1.84625 17.0454 1.80964 16.6935 1.80964 16.3329C1.80964 13.4087 4.18938 11.0281 7.11441 11.0281C10.0392 11.0281 12.4192 13.4087 12.4192 16.3329C12.4192 16.9461 12.3092 17.5318 12.1174 18.08C18.0205 17.692 36.6062 17.8306 37.3919 17.918C37.4913 17.929 37.6957 17.9267 37.9776 17.9144C37.8926 17.5335 37.8423 17.1394 37.8423 16.7335C37.8423 13.7807 40.2446 11.3784 43.1983 11.3784C46.1249 11.3784 48.5092 13.7419 48.5493 16.6591L49.4686 16.2711C49.6722 16.1862 49.6423 16.1784 49.4461 16.0766C49.2184 15.9585 49.0803 15.5955 49.6713 14.5479C50.4165 13.2247 49.7228 12.2662 49.2789 11.8338C49.1199 11.6806 48.9744 11.3988 48.9708 11.1785C48.9205 7.96372 47.6975 6.8558 47.068 6.49748C46.8759 6.38875 46.8789 6.31031 47.097 6.27268C49.9685 5.77625 48.0245 5.80583 47.7694 5.03808C47.503 4.23728 45.7678 5.10448 44.8669 5.33826C44.5345 5.42476 43.4885 5.6105 42.3015 5.81144C42.3559 5.75156 42.3899 5.68904 42.3726 5.62253C42.3248 5.43761 42.2685 5.29104 42.2144 5.1772C42.12 4.97698 41.9051 4.68424 41.735 4.54216C41.5248 4.36539 41.1824 4.19006 40.6918 4.27156C40.5287 4.29899 40.3894 4.39018 40.2703 4.52227C40.2454 4.483 40.2206 4.44281 40.1976 4.4115C39.9961 4.13559 39.634 3.81531 39.0907 3.94312C38.4624 4.09132 38.1898 5.58877 38.0794 6.49595C37.8682 6.52165 37.6049 6.54012 37.4259 6.54012H34.0226C34.7208 5.6513 33.9094 5.10275 33.2635 5.0594C33.0907 5.04726 32.8389 5.15242 32.5634 5.30848C32.4007 5.034 32.1093 4.86825 31.8464 4.84397C31.4164 4.80552 30.4219 5.88018 29.9486 6.42312C29.9175 6.45913 29.8979 6.49942 29.8837 6.5392H21.0777V5.41384C21.0777 5.02716 20.7637 4.71321 20.377 4.71321C19.9904 4.71321 19.6764 5.02716 19.6764 5.41384V6.5392H18.1086C17.8877 6.5392 17.8402 6.41639 18.0011 6.26554C19.0165 5.31144 22.3154 2.17354 22.1458 1.8349C22.0303 1.60499 22.169 1.243 22.3077 0.976372C22.4093 0.780636 22.3908 0.500241 22.2067 0.377332C21.8944 0.168744 21.345 -0.0765642 20.5696 0.0227829C20.3503 0.0509347 20.0047 0.149466 19.8061 0.246365C18.1252 1.0694 13.9886 4.636 12.8381 5.64008C12.6715 5.78583 12.3582 5.91802 12.1375 5.93638C2.33901 6.76043 0.957638 9.95117 0.779038 11.0806C0.744664 11.2989 0.609413 11.5842 0.470797 11.7562C-0.36631 12.8001 0.117472 14.8546 0.369206 15.7024C0.432139 15.9149 0.424387 16.2557 0.426631 16.4769Z" fill="white"/>
<path d="M34.3393 4.47501C34.3393 3.57579 33.8574 2.84619 33.2634 2.84619C32.9021 2.84619 32.5845 3.11802 32.3892 3.53121C32.2351 3.26693 32.0123 3.09649 31.7622 3.09649C31.299 3.09649 30.9238 3.66483 30.9238 4.36546C30.9238 5.0663 31.299 4.82262 31.7622 4.82262C31.9421 4.82262 32.1068 4.85781 32.2437 4.86169C32.3835 5.25347 32.7849 5.0612 33.2635 5.0612C33.8582 5.0612 34.3393 5.37434 34.3393 4.47501Z" fill="white"/>
<path d="M39.1905 3.6888C39.3703 3.6888 39.5354 3.72399 39.6724 3.72787C39.8113 4.11964 40.2128 3.92646 40.6918 3.92646C41.2853 3.92646 41.7681 4.2396 41.7681 3.34027C41.7681 2.44094 41.2854 1.71165 40.6918 1.71165C40.3309 1.71165 40.0125 1.98327 39.8172 2.39647C39.6639 2.13219 39.441 1.96175 39.1905 1.96175C38.7278 1.96175 38.3516 2.53029 38.3516 3.23093C38.3516 3.93329 38.7269 3.6888 39.1905 3.6888Z" fill="white"/>
<path d="M7.11437 20.8379C8.95361 20.8379 10.5326 19.7339 11.2326 18.1543C11.4792 17.5968 11.6184 16.983 11.6184 16.3338C11.6184 13.8464 9.60222 11.8297 7.11437 11.8297C4.62651 11.8297 2.61009 13.8464 2.61009 16.3338C2.61009 16.6685 2.64935 16.9931 2.718 17.3066C3.16363 19.3259 4.96137 20.8379 7.11437 20.8379Z" fill="white"/>
<path d="M43.1983 12.1801C40.6828 12.1801 38.6431 14.2186 38.6431 16.7344C38.6431 17.1252 38.6979 17.502 38.7911 17.8642C39.2939 19.8316 41.0736 21.2883 43.1983 21.2883C45.6332 21.2883 47.6161 19.3749 47.7407 16.9702C47.7444 16.8913 47.7522 16.8141 47.7522 16.7336C47.7513 14.2187 45.7129 12.1801 43.1983 12.1801Z" fill="white"/>
</svg>
