<svg width="345" height="60" viewBox="0 0 345 60" fill="none" xmlns="http://www.w3.org/2000/svg">
<g filter="url(#filter0_d_1_4713)">
<rect width="345" height="60" rx="30" fill="white"/>
</g>
<path d="M57.53 37V25.848H63.956V27.038H58.941V30.812H63.191V32.002H58.941V37H57.53ZM67.1173 37.204C66.426 37.204 65.848 37 65.3833 36.592C64.93 36.1727 64.7033 35.5947 64.7033 34.858C64.7033 33.9513 65.1057 33.26 65.9103 32.784C66.7263 32.2967 68.0127 31.9567 69.7693 31.764C69.7693 31.4127 69.7183 31.0783 69.6163 30.761C69.5257 30.4437 69.3557 30.1887 69.1063 29.996C68.8683 29.792 68.5227 29.69 68.0693 29.69C67.5933 29.69 67.1457 29.7807 66.7263 29.962C66.307 30.1433 65.933 30.3473 65.6043 30.574L65.0603 29.605C65.4457 29.3557 65.916 29.1177 66.4713 28.891C67.038 28.653 67.65 28.534 68.3073 28.534C69.316 28.534 70.047 28.8457 70.5003 29.469C70.9537 30.081 71.1803 30.9027 71.1803 31.934V37H70.0243L69.9053 36.014H69.8543C69.469 36.3313 69.044 36.609 68.5793 36.847C68.126 37.085 67.6387 37.204 67.1173 37.204ZM67.5253 36.082C67.922 36.082 68.296 35.9857 68.6473 35.793C68.9987 35.6003 69.3727 35.3283 69.7693 34.977V32.682C68.398 32.852 67.4347 33.107 66.8793 33.447C66.3353 33.787 66.0633 34.2233 66.0633 34.756C66.0633 35.2207 66.205 35.5607 66.4883 35.776C66.7717 35.98 67.1173 36.082 67.5253 36.082ZM75.9387 37.204C75.3494 37.204 74.7884 37.0963 74.2557 36.881C73.7231 36.6543 73.2584 36.3823 72.8617 36.065L73.5587 35.13C73.9214 35.4133 74.2954 35.6513 74.6807 35.844C75.0661 36.0253 75.5024 36.116 75.9897 36.116C76.5337 36.116 76.9417 35.9913 77.2137 35.742C77.4857 35.4813 77.6217 35.1753 77.6217 34.824C77.6217 34.5407 77.5254 34.3027 77.3327 34.11C77.1514 33.9173 76.9134 33.7587 76.6187 33.634C76.3354 33.498 76.0407 33.3733 75.7347 33.26C75.3494 33.1127 74.9697 32.9483 74.5957 32.767C74.2217 32.5743 73.9157 32.3307 73.6777 32.036C73.4397 31.73 73.3207 31.3447 73.3207 30.88C73.3207 30.2113 73.5701 29.656 74.0687 29.214C74.5787 28.7607 75.2814 28.534 76.1767 28.534C76.6867 28.534 77.1627 28.6247 77.6047 28.806C78.0467 28.9873 78.4264 29.2083 78.7437 29.469L78.0637 30.353C77.7804 30.1377 77.4857 29.962 77.1797 29.826C76.8737 29.69 76.5394 29.622 76.1767 29.622C75.6554 29.622 75.2701 29.741 75.0207 29.979C74.7827 30.217 74.6637 30.4947 74.6637 30.812C74.6637 31.0727 74.7487 31.288 74.9187 31.458C75.0887 31.6167 75.3097 31.7583 75.5817 31.883C75.8537 31.9963 76.1427 32.1153 76.4487 32.24C76.8454 32.3873 77.2364 32.5573 77.6217 32.75C78.0071 32.9313 78.3244 33.1807 78.5737 33.498C78.8344 33.804 78.9647 34.2177 78.9647 34.739C78.9647 35.181 78.8457 35.589 78.6077 35.963C78.3811 36.337 78.0411 36.6373 77.5877 36.864C77.1457 37.0907 76.5961 37.204 75.9387 37.204ZM83.0608 37.204C82.4715 37.204 81.9105 37.0963 81.3778 36.881C80.8451 36.6543 80.3805 36.3823 79.9838 36.065L80.6808 35.13C81.0435 35.4133 81.4175 35.6513 81.8028 35.844C82.1881 36.0253 82.6245 36.116 83.1118 36.116C83.6558 36.116 84.0638 35.9913 84.3358 35.742C84.6078 35.4813 84.7438 35.1753 84.7438 34.824C84.7438 34.5407 84.6475 34.3027 84.4548 34.11C84.2735 33.9173 84.0355 33.7587 83.7408 33.634C83.4575 33.498 83.1628 33.3733 82.8568 33.26C82.4715 33.1127 82.0918 32.9483 81.7178 32.767C81.3438 32.5743 81.0378 32.3307 80.7998 32.036C80.5618 31.73 80.4428 31.3447 80.4428 30.88C80.4428 30.2113 80.6921 29.656 81.1908 29.214C81.7008 28.7607 82.4035 28.534 83.2988 28.534C83.8088 28.534 84.2848 28.6247 84.7268 28.806C85.1688 28.9873 85.5485 29.2083 85.8658 29.469L85.1858 30.353C84.9025 30.1377 84.6078 29.962 84.3018 29.826C83.9958 29.69 83.6615 29.622 83.2988 29.622C82.7775 29.622 82.3921 29.741 82.1428 29.979C81.9048 30.217 81.7858 30.4947 81.7858 30.812C81.7858 31.0727 81.8708 31.288 82.0408 31.458C82.2108 31.6167 82.4318 31.7583 82.7038 31.883C82.9758 31.9963 83.2648 32.1153 83.5708 32.24C83.9675 32.3873 84.3585 32.5573 84.7438 32.75C85.1291 32.9313 85.4465 33.1807 85.6958 33.498C85.9565 33.804 86.0868 34.2177 86.0868 34.739C86.0868 35.181 85.9678 35.589 85.7298 35.963C85.5031 36.337 85.1631 36.6373 84.7098 36.864C84.2678 37.0907 83.7181 37.204 83.0608 37.204ZM91.5632 37V25.848H93.2632L95.4052 31.798C95.5412 32.1833 95.6715 32.5743 95.7962 32.971C95.9322 33.3563 96.0682 33.7417 96.2042 34.127H96.2722C96.4082 33.7417 96.5329 33.3563 96.6462 32.971C96.7709 32.5743 96.9012 32.1833 97.0372 31.798L99.1452 25.848H100.862V37H99.5362V30.863C99.5362 30.3643 99.5589 29.8147 99.6042 29.214C99.6495 28.602 99.6892 28.0523 99.7232 27.565H99.6552L98.7712 30.098L96.6632 35.878H95.7282L93.6202 30.098L92.7362 27.565H92.6682C92.7022 28.0523 92.7362 28.602 92.7702 29.214C92.8155 29.8147 92.8382 30.3643 92.8382 30.863V37H91.5632ZM107.434 37.204C107.048 37.204 106.646 37.1133 106.227 36.932C105.819 36.7393 105.433 36.4787 105.071 36.15H105.02L104.901 37H103.779V24.896H105.173V28.194L105.139 29.69C105.513 29.3613 105.921 29.0893 106.363 28.874C106.816 28.6473 107.269 28.534 107.723 28.534C108.799 28.534 109.615 28.9137 110.171 29.673C110.726 30.4323 111.004 31.4523 111.004 32.733C111.004 33.6737 110.834 34.4783 110.494 35.147C110.165 35.8157 109.729 36.3257 109.185 36.677C108.652 37.0283 108.068 37.204 107.434 37.204ZM107.196 36.031C107.876 36.031 108.437 35.742 108.879 35.164C109.332 34.5747 109.559 33.77 109.559 32.75C109.559 31.8433 109.389 31.1123 109.049 30.557C108.72 29.9903 108.165 29.707 107.383 29.707C107.031 29.707 106.674 29.8033 106.312 29.996C105.949 30.1887 105.569 30.4663 105.173 30.829V35.164C105.535 35.4813 105.892 35.708 106.244 35.844C106.606 35.9687 106.924 36.031 107.196 36.031ZM114.847 37.204C114.155 37.204 113.577 37 113.113 36.592C112.659 36.1727 112.433 35.5947 112.433 34.858C112.433 33.9513 112.835 33.26 113.64 32.784C114.456 32.2967 115.742 31.9567 117.499 31.764C117.499 31.4127 117.448 31.0783 117.346 30.761C117.255 30.4437 117.085 30.1887 116.836 29.996C116.598 29.792 116.252 29.69 115.799 29.69C115.323 29.69 114.875 29.7807 114.456 29.962C114.036 30.1433 113.662 30.3473 113.334 30.574L112.79 29.605C113.175 29.3557 113.645 29.1177 114.201 28.891C114.767 28.653 115.379 28.534 116.037 28.534C117.045 28.534 117.776 28.8457 118.23 29.469C118.683 30.081 118.91 30.9027 118.91 31.934V37H117.754L117.635 36.014H117.584C117.198 36.3313 116.773 36.609 116.309 36.847C115.855 37.085 115.368 37.204 114.847 37.204ZM115.255 36.082C115.651 36.082 116.025 35.9857 116.377 35.793C116.728 35.6003 117.102 35.3283 117.499 34.977V32.682C116.127 32.852 115.164 33.107 114.609 33.447C114.065 33.787 113.793 34.2233 113.793 34.756C113.793 35.2207 113.934 35.5607 114.218 35.776C114.501 35.98 114.847 36.082 115.255 36.082ZM124.722 37.204C124.054 37.204 123.425 37.034 122.835 36.694C122.257 36.354 121.787 35.861 121.424 35.215C121.073 34.569 120.897 33.7927 120.897 32.886C120.897 31.9567 121.073 31.169 121.424 30.523C121.787 29.877 122.257 29.384 122.835 29.044C123.425 28.704 124.054 28.534 124.722 28.534C125.402 28.534 126.031 28.704 126.609 29.044C127.187 29.384 127.652 29.877 128.003 30.523C128.366 31.169 128.547 31.9567 128.547 32.886C128.547 33.7927 128.366 34.569 128.003 35.215C127.652 35.861 127.187 36.354 126.609 36.694C126.031 37.034 125.402 37.204 124.722 37.204ZM124.722 36.048C125.436 36.048 126.009 35.759 126.439 35.181C126.881 34.5917 127.102 33.8267 127.102 32.886C127.102 31.934 126.881 31.1633 126.439 30.574C126.009 29.9847 125.436 29.69 124.722 29.69C124.02 29.69 123.447 29.9847 123.005 30.574C122.563 31.1633 122.342 31.934 122.342 32.886C122.342 33.8267 122.563 34.5917 123.005 35.181C123.447 35.759 124.02 36.048 124.722 36.048ZM130.302 39.89L129.962 39.074C130.449 38.8587 130.829 38.5697 131.101 38.207C131.373 37.8557 131.503 37.4533 131.492 37C131.469 37.0113 131.441 37.017 131.407 37.017C131.373 37.017 131.345 37.017 131.322 37.017C131.05 37.017 130.812 36.9377 130.608 36.779C130.415 36.609 130.319 36.3653 130.319 36.048C130.319 35.742 130.421 35.504 130.625 35.334C130.829 35.1527 131.073 35.062 131.356 35.062C131.719 35.062 132.002 35.2093 132.206 35.504C132.421 35.7987 132.529 36.201 132.529 36.711C132.529 37.4363 132.331 38.071 131.934 38.615C131.537 39.1703 130.993 39.5953 130.302 39.89ZM138.33 37V25.848H141.118C142.84 25.848 144.149 26.3297 145.045 27.293C145.94 28.245 146.388 29.605 146.388 31.373C146.388 33.1523 145.94 34.535 145.045 35.521C144.161 36.507 142.874 37 141.186 37H138.33ZM139.741 35.844H141.016C142.319 35.844 143.294 35.453 143.94 34.671C144.597 33.8777 144.926 32.7783 144.926 31.373C144.926 29.9677 144.597 28.891 143.94 28.143C143.294 27.3837 142.319 27.004 141.016 27.004H139.741V35.844ZM150.557 37.204C149.865 37.204 149.287 37 148.823 36.592C148.369 36.1727 148.143 35.5947 148.143 34.858C148.143 33.9513 148.545 33.26 149.35 32.784C150.166 32.2967 151.452 31.9567 153.209 31.764C153.209 31.4127 153.158 31.0783 153.056 30.761C152.965 30.4437 152.795 30.1887 152.546 29.996C152.308 29.792 151.962 29.69 151.509 29.69C151.033 29.69 150.585 29.7807 150.166 29.962C149.746 30.1433 149.372 30.3473 149.044 30.574L148.5 29.605C148.885 29.3557 149.355 29.1177 149.911 28.891C150.477 28.653 151.089 28.534 151.747 28.534C152.755 28.534 153.486 28.8457 153.94 29.469C154.393 30.081 154.62 30.9027 154.62 31.934V37H153.464L153.345 36.014H153.294C152.908 36.3313 152.483 36.609 152.019 36.847C151.565 37.085 151.078 37.204 150.557 37.204ZM150.965 36.082C151.361 36.082 151.735 35.9857 152.087 35.793C152.438 35.6003 152.812 35.3283 153.209 34.977V32.682C151.837 32.852 150.874 33.107 150.319 33.447C149.775 33.787 149.503 34.2233 149.503 34.756C149.503 35.2207 149.644 35.5607 149.928 35.776C150.211 35.98 150.557 36.082 150.965 36.082ZM157.219 37V24.896H158.596V33.09H158.647L162.166 28.738H163.713L160.942 32.053L164.087 37H162.557L160.143 33.022L158.596 34.824V37H157.219ZM167.374 37.204C166.683 37.204 166.105 37 165.64 36.592C165.187 36.1727 164.96 35.5947 164.96 34.858C164.96 33.9513 165.363 33.26 166.167 32.784C166.983 32.2967 168.27 31.9567 170.026 31.764C170.026 31.4127 169.975 31.0783 169.873 30.761C169.783 30.4437 169.613 30.1887 169.363 29.996C169.125 29.792 168.78 29.69 168.326 29.69C167.85 29.69 167.403 29.7807 166.983 29.962C166.564 30.1433 166.19 30.3473 165.861 30.574L165.317 29.605C165.703 29.3557 166.173 29.1177 166.728 28.891C167.295 28.653 167.907 28.534 168.564 28.534C169.573 28.534 170.304 28.8457 170.757 29.469C171.211 30.081 171.437 30.9027 171.437 31.934V37H170.281L170.162 36.014H170.111C169.726 36.3313 169.301 36.609 168.836 36.847C168.383 37.085 167.896 37.204 167.374 37.204ZM167.782 36.082C168.179 36.082 168.553 35.9857 168.904 35.793C169.256 35.6003 169.63 35.3283 170.026 34.977V32.682C168.655 32.852 167.692 33.107 167.136 33.447C166.592 33.787 166.32 34.2233 166.32 34.756C166.32 35.2207 166.462 35.5607 166.745 35.776C167.029 35.98 167.374 36.082 167.782 36.082ZM174.037 37V28.738H175.193L175.312 30.234H175.363C175.646 29.7127 175.992 29.299 176.4 28.993C176.808 28.687 177.244 28.534 177.709 28.534C178.037 28.534 178.332 28.5907 178.593 28.704L178.321 29.928C178.185 29.8827 178.06 29.8487 177.947 29.826C177.833 29.8033 177.692 29.792 177.522 29.792C177.17 29.792 176.802 29.9337 176.417 30.217C176.043 30.5003 175.714 30.9933 175.431 31.696V37H174.037ZM178.712 39.89L178.372 39.074C178.86 38.8587 179.239 38.5697 179.511 38.207C179.783 37.8557 179.914 37.4533 179.902 37C179.88 37.0113 179.851 37.017 179.817 37.017C179.783 37.017 179.755 37.017 179.732 37.017C179.46 37.017 179.222 36.9377 179.018 36.779C178.826 36.609 178.729 36.3653 178.729 36.048C178.729 35.742 178.831 35.504 179.035 35.334C179.239 35.1527 179.483 35.062 179.766 35.062C180.129 35.062 180.412 35.2093 180.616 35.504C180.832 35.7987 180.939 36.201 180.939 36.711C180.939 37.4363 180.741 38.071 180.344 38.615C179.948 39.1703 179.404 39.5953 178.712 39.89ZM189.834 37.204C189.052 37.204 188.327 37.0567 187.658 36.762C186.989 36.456 186.411 36.0537 185.924 35.555L186.774 34.569C187.171 34.9883 187.635 35.3283 188.168 35.589C188.712 35.8383 189.273 35.963 189.851 35.963C190.588 35.963 191.16 35.7987 191.568 35.47C191.976 35.13 192.18 34.688 192.18 34.144C192.18 33.7587 192.095 33.4527 191.925 33.226C191.766 32.9993 191.545 32.8067 191.262 32.648C190.99 32.4893 190.678 32.3307 190.327 32.172L188.729 31.475C188.378 31.3277 188.026 31.135 187.675 30.897C187.335 30.659 187.046 30.353 186.808 29.979C186.581 29.605 186.468 29.146 186.468 28.602C186.468 28.0353 186.615 27.531 186.91 27.089C187.216 26.6357 187.635 26.2843 188.168 26.035C188.701 25.7743 189.301 25.644 189.97 25.644C190.639 25.644 191.256 25.7743 191.823 26.035C192.39 26.2843 192.871 26.613 193.268 27.021L192.503 27.939C192.163 27.6103 191.783 27.3553 191.364 27.174C190.956 26.9813 190.491 26.885 189.97 26.885C189.347 26.885 188.842 27.0323 188.457 27.327C188.083 27.6217 187.896 28.0183 187.896 28.517C187.896 28.8683 187.987 29.163 188.168 29.401C188.361 29.6277 188.599 29.8147 188.882 29.962C189.165 30.1093 189.454 30.2453 189.749 30.37L191.33 31.05C191.761 31.2313 192.146 31.4523 192.486 31.713C192.837 31.9623 193.115 32.274 193.319 32.648C193.523 33.0107 193.625 33.4697 193.625 34.025C193.625 34.6143 193.472 35.1527 193.166 35.64C192.86 36.116 192.424 36.4957 191.857 36.779C191.29 37.0623 190.616 37.204 189.834 37.204ZM195.821 37V25.848H202.247V27.038H197.232V30.54H201.465V31.747H197.232V35.793H202.417V37H195.821ZM204.786 37V25.848H206.248L210.277 32.852L211.484 35.164H211.552C211.518 34.5973 211.478 34.0137 211.433 33.413C211.399 32.801 211.382 32.2003 211.382 31.611V25.848H212.725V37H211.263L207.217 29.979L206.01 27.684H205.942C205.987 28.2393 206.027 28.8117 206.061 29.401C206.106 29.9903 206.129 30.5797 206.129 31.169V37H204.786ZM215.793 37V25.848H222.219V27.038H217.204V30.54H221.437V31.747H217.204V35.793H222.389V37H215.793ZM229.144 37.204C228.169 37.204 227.302 36.9773 226.543 36.524C225.783 36.0593 225.188 35.3963 224.758 34.535C224.327 33.6737 224.112 32.6367 224.112 31.424C224.112 30.2227 224.333 29.1913 224.775 28.33C225.217 27.4687 225.823 26.8057 226.594 26.341C227.364 25.8763 228.243 25.644 229.229 25.644C229.999 25.644 230.645 25.7913 231.167 26.086C231.699 26.3693 232.124 26.681 232.442 27.021L231.66 27.939C231.376 27.6443 231.048 27.395 230.674 27.191C230.3 26.987 229.829 26.885 229.263 26.885C228.515 26.885 227.863 27.072 227.308 27.446C226.752 27.8087 226.322 28.3243 226.016 28.993C225.721 29.6617 225.574 30.4607 225.574 31.39C225.574 32.7953 225.891 33.9117 226.526 34.739C227.172 35.555 228.09 35.963 229.28 35.963C229.676 35.963 230.056 35.9063 230.419 35.793C230.781 35.6683 231.07 35.504 231.286 35.3V32.393H228.923V31.22H232.578V35.912C232.226 36.286 231.75 36.5977 231.15 36.847C230.56 37.085 229.892 37.204 229.144 37.204ZM237.104 30.761L236.577 32.461H239.926L239.399 30.761C239.195 30.1377 239.003 29.52 238.821 28.908C238.64 28.2847 238.459 27.65 238.277 27.004H238.209C238.039 27.65 237.864 28.2847 237.682 28.908C237.501 29.52 237.308 30.1377 237.104 30.761ZM233.704 37L237.478 25.848H239.076L242.85 37H241.337L240.283 33.6H236.22L235.149 37H233.704ZM244.43 37V25.848H245.841V35.793H250.72V37H244.43Z" fill="#242E42"/>
<path fill-rule="evenodd" clip-rule="evenodd" d="M309 30C309 24.4773 313.477 20 319 20C324.523 20 329 24.4773 329 30C329 35.5227 324.523 40 319 40C313.477 40 309 35.5227 309 30ZM319.917 30.0253L323.633 26.3093C323.893 26.0493 323.893 25.6267 323.633 25.3667C323.373 25.1067 322.951 25.1067 322.691 25.3667L319.025 29.032L315.737 25.3667C315.477 25.1067 315.055 25.1067 314.795 25.3667C314.535 25.6267 314.535 26.0493 314.795 26.3093L318.083 29.9747L314.367 33.6907C314.107 33.9507 314.107 34.3733 314.367 34.6333C314.627 34.8933 315.049 34.8933 315.309 34.6333L318.975 30.968L322.263 34.6333C322.523 34.8933 322.945 34.8933 323.205 34.6333C323.465 34.3733 323.465 33.9507 323.205 33.6907L319.917 30.0253Z" fill="#C8C7CC"/>
<path d="M27.6213 30L35.5607 21.6826C36.1464 21.0689 36.1464 20.0739 35.5607 19.4603C34.9749 18.8466 34.0251 18.8466 33.4393 19.4603L24.4393 28.8888C23.8536 29.5025 23.8536 30.4975 24.4393 31.1112L33.4393 40.5397C34.0251 41.1534 34.9749 41.1534 35.5607 40.5397C36.1464 39.9261 36.1464 38.9311 35.5607 38.3174L27.6213 30Z" fill="#C8C7CC"/>
<mask id="mask0_1_4713" style="mask-type:luminance" maskUnits="userSpaceOnUse" x="24" y="19" width="12" height="22">
<path d="M27.6213 30L35.5607 21.6826C36.1464 21.0689 36.1464 20.0739 35.5607 19.4603C34.9749 18.8466 34.0251 18.8466 33.4393 19.4603L24.4393 28.8888C23.8536 29.5025 23.8536 30.4975 24.4393 31.1112L33.4393 40.5397C34.0251 41.1534 34.9749 41.1534 35.5607 40.5397C36.1464 39.9261 36.1464 38.9311 35.5607 38.3174L27.6213 30Z" fill="white"/>
</mask>
<g mask="url(#mask0_1_4713)">
</g>
<defs>
<filter id="filter0_d_1_4713" x="-10" y="-5" width="365" height="80" filterUnits="userSpaceOnUse" color-interpolation-filters="sRGB">
<feFlood flood-opacity="0" result="BackgroundImageFix"/>
<feColorMatrix in="SourceAlpha" type="matrix" values="0 0 0 0 0 0 0 0 0 0 0 0 0 0 0 0 0 0 127 0" result="hardAlpha"/>
<feOffset dy="5"/>
<feGaussianBlur stdDeviation="5"/>
<feColorMatrix type="matrix" values="0 0 0 0 0 0 0 0 0 0 0 0 0 0 0 0 0 0 0.1 0"/>
<feBlend mode="normal" in2="BackgroundImageFix" result="effect1_dropShadow_1_4713"/>
<feBlend mode="normal" in="SourceGraphic" in2="effect1_dropShadow_1_4713" result="shape"/>
</filter>
</defs>
</svg>
